G04 #@! TF.GenerationSoftware,KiCad,Pcbnew,(5.0.0)*
G04 #@! TF.CreationDate,2020-04-28T19:31:03-04:00*
G04 #@! TF.ProjectId,Kyle's Amp,4B796C65277320416D702E6B69636164,rev?*
G04 #@! TF.SameCoordinates,Original*
G04 #@! TF.FileFunction,Legend,Top*
G04 #@! TF.FilePolarity,Positive*
%FSLAX46Y46*%
G04 Gerber Fmt 4.6, Leading zero omitted, Abs format (unit mm)*
G04 Created by KiCad (PCBNEW (5.0.0)) date 04/28/20 19:31:03*
%MOMM*%
%LPD*%
G01*
G04 APERTURE LIST*
%ADD10C,0.120000*%
%ADD11C,0.150000*%
%ADD12C,0.125000*%
G04 APERTURE END LIST*
D10*
G04 #@! TO.C,C15*
X139447000Y-102782000D02*
X138447000Y-102782000D01*
X138447000Y-104482000D02*
X139447000Y-104482000D01*
G04 #@! TO.C,U4*
X138868000Y-102255000D02*
X140668000Y-102255000D01*
X140668000Y-99035000D02*
X138218000Y-99035000D01*
G04 #@! TO.C,R28*
X132390000Y-98670000D02*
X131190000Y-98670000D01*
X131190000Y-96910000D02*
X132390000Y-96910000D01*
G04 #@! TO.C,R23*
X146049000Y-100720000D02*
X147249000Y-100720000D01*
X147249000Y-102480000D02*
X146049000Y-102480000D01*
G04 #@! TO.C,C13*
X135653000Y-102782000D02*
X134653000Y-102782000D01*
X134653000Y-104482000D02*
X135653000Y-104482000D01*
G04 #@! TO.C,R27*
X144814000Y-105055000D02*
X144814000Y-103855000D01*
X146574000Y-103855000D02*
X146574000Y-105055000D01*
G04 #@! TO.C,R24*
X134487000Y-96910000D02*
X135687000Y-96910000D01*
X135687000Y-98670000D02*
X134487000Y-98670000D01*
G04 #@! TO.C,C16*
X139559000Y-97290000D02*
X139559000Y-96290000D01*
X137859000Y-96290000D02*
X137859000Y-97290000D01*
G04 #@! TO.C,R22*
X134487000Y-100720000D02*
X135687000Y-100720000D01*
X135687000Y-102480000D02*
X134487000Y-102480000D01*
G04 #@! TO.C,R25*
X142637000Y-103855000D02*
X142637000Y-105055000D01*
X140877000Y-105055000D02*
X140877000Y-103855000D01*
G04 #@! TO.C,R26*
X134492000Y-98815000D02*
X135692000Y-98815000D01*
X135692000Y-100575000D02*
X134492000Y-100575000D01*
G04 #@! TO.C,C14*
X144512000Y-103100000D02*
X144512000Y-102100000D01*
X142812000Y-102100000D02*
X142812000Y-103100000D01*
G04 #@! TO.C,C11*
X115308000Y-104355000D02*
X116308000Y-104355000D01*
X116308000Y-102655000D02*
X115308000Y-102655000D01*
G04 #@! TO.C,C10*
X119673000Y-101973000D02*
X119673000Y-102973000D01*
X121373000Y-102973000D02*
X121373000Y-101973000D01*
G04 #@! TO.C,R19*
X112553000Y-100448000D02*
X111353000Y-100448000D01*
X111353000Y-98688000D02*
X112553000Y-98688000D01*
G04 #@! TO.C,C9*
X111514000Y-104355000D02*
X112514000Y-104355000D01*
X112514000Y-102655000D02*
X111514000Y-102655000D01*
G04 #@! TO.C,R15*
X112548000Y-102353000D02*
X111348000Y-102353000D01*
X111348000Y-100593000D02*
X112548000Y-100593000D01*
G04 #@! TO.C,R18*
X117738000Y-104928000D02*
X117738000Y-103728000D01*
X119498000Y-103728000D02*
X119498000Y-104928000D01*
G04 #@! TO.C,R21*
X108051000Y-96783000D02*
X109251000Y-96783000D01*
X109251000Y-98543000D02*
X108051000Y-98543000D01*
G04 #@! TO.C,R20*
X123435000Y-103728000D02*
X123435000Y-104928000D01*
X121675000Y-104928000D02*
X121675000Y-103728000D01*
G04 #@! TO.C,R17*
X112548000Y-98543000D02*
X111348000Y-98543000D01*
X111348000Y-96783000D02*
X112548000Y-96783000D01*
G04 #@! TO.C,C12*
X114720000Y-96163000D02*
X114720000Y-97163000D01*
X116420000Y-97163000D02*
X116420000Y-96163000D01*
G04 #@! TO.C,R16*
X124110000Y-102353000D02*
X122910000Y-102353000D01*
X122910000Y-100593000D02*
X124110000Y-100593000D01*
G04 #@! TO.C,U3*
X117529000Y-98908000D02*
X115079000Y-98908000D01*
X115729000Y-102128000D02*
X117529000Y-102128000D01*
G04 #@! TO.C,C7*
X139168000Y-88812000D02*
X138168000Y-88812000D01*
X138168000Y-90512000D02*
X139168000Y-90512000D01*
G04 #@! TO.C,C6*
X144233000Y-89130000D02*
X144233000Y-88130000D01*
X142533000Y-88130000D02*
X142533000Y-89130000D01*
G04 #@! TO.C,C8*
X139280000Y-83320000D02*
X139280000Y-82320000D01*
X137580000Y-82320000D02*
X137580000Y-83320000D01*
G04 #@! TO.C,C5*
X135374000Y-88812000D02*
X134374000Y-88812000D01*
X134374000Y-90512000D02*
X135374000Y-90512000D01*
G04 #@! TO.C,U2*
X138589000Y-88285000D02*
X140389000Y-88285000D01*
X140389000Y-85065000D02*
X137939000Y-85065000D01*
G04 #@! TO.C,R14*
X132111000Y-84700000D02*
X130911000Y-84700000D01*
X130911000Y-82940000D02*
X132111000Y-82940000D01*
G04 #@! TO.C,R10*
X134208000Y-82940000D02*
X135408000Y-82940000D01*
X135408000Y-84700000D02*
X134208000Y-84700000D01*
G04 #@! TO.C,R11*
X142358000Y-89885000D02*
X142358000Y-91085000D01*
X140598000Y-91085000D02*
X140598000Y-89885000D01*
G04 #@! TO.C,R8*
X134208000Y-86750000D02*
X135408000Y-86750000D01*
X135408000Y-88510000D02*
X134208000Y-88510000D01*
G04 #@! TO.C,R9*
X145770000Y-86750000D02*
X146970000Y-86750000D01*
X146970000Y-88510000D02*
X145770000Y-88510000D01*
G04 #@! TO.C,R12*
X134213000Y-84845000D02*
X135413000Y-84845000D01*
X135413000Y-86605000D02*
X134213000Y-86605000D01*
G04 #@! TO.C,R13*
X144535000Y-91085000D02*
X144535000Y-89885000D01*
X146295000Y-89885000D02*
X146295000Y-91085000D01*
G04 #@! TO.C,R1*
X112050000Y-88383000D02*
X110850000Y-88383000D01*
X110850000Y-86623000D02*
X112050000Y-86623000D01*
G04 #@! TO.C,R2*
X123612000Y-88383000D02*
X122412000Y-88383000D01*
X122412000Y-86623000D02*
X123612000Y-86623000D01*
G04 #@! TO.C,R3*
X112050000Y-84573000D02*
X110850000Y-84573000D01*
X110850000Y-82813000D02*
X112050000Y-82813000D01*
G04 #@! TO.C,R4*
X117240000Y-90958000D02*
X117240000Y-89758000D01*
X119000000Y-89758000D02*
X119000000Y-90958000D01*
G04 #@! TO.C,R5*
X112055000Y-86478000D02*
X110855000Y-86478000D01*
X110855000Y-84718000D02*
X112055000Y-84718000D01*
G04 #@! TO.C,R6*
X122937000Y-89758000D02*
X122937000Y-90958000D01*
X121177000Y-90958000D02*
X121177000Y-89758000D01*
G04 #@! TO.C,R7*
X107553000Y-82813000D02*
X108753000Y-82813000D01*
X108753000Y-84573000D02*
X107553000Y-84573000D01*
G04 #@! TO.C,U1*
X117031000Y-84938000D02*
X114581000Y-84938000D01*
X115231000Y-88158000D02*
X117031000Y-88158000D01*
G04 #@! TO.C,C1*
X111016000Y-90385000D02*
X112016000Y-90385000D01*
X112016000Y-88685000D02*
X111016000Y-88685000D01*
G04 #@! TO.C,C2*
X119175000Y-88003000D02*
X119175000Y-89003000D01*
X120875000Y-89003000D02*
X120875000Y-88003000D01*
G04 #@! TO.C,C3*
X114810000Y-90385000D02*
X115810000Y-90385000D01*
X115810000Y-88685000D02*
X114810000Y-88685000D01*
G04 #@! TO.C,C4*
X114222000Y-82193000D02*
X114222000Y-83193000D01*
X115922000Y-83193000D02*
X115922000Y-82193000D01*
G04 #@! TO.C,C17*
X144614000Y-111625000D02*
X144614000Y-110625000D01*
X142914000Y-110625000D02*
X142914000Y-111625000D01*
G04 #@! TO.C,C18*
X140882000Y-110641000D02*
X140882000Y-111641000D01*
X142582000Y-111641000D02*
X142582000Y-110641000D01*
G04 #@! TO.C,D1*
X136907000Y-115446000D02*
X136907000Y-110046000D01*
X140207000Y-115446000D02*
X140207000Y-110046000D01*
X136907000Y-115446000D02*
X140207000Y-115446000D01*
G04 #@! TO.C,R29*
X139350000Y-119625000D02*
X138150000Y-119625000D01*
X138150000Y-117865000D02*
X139350000Y-117865000D01*
G04 #@! TO.C,R30*
X139350000Y-117593000D02*
X138150000Y-117593000D01*
X138150000Y-115833000D02*
X139350000Y-115833000D01*
G04 #@! TO.C,R31*
X134340000Y-113166000D02*
X135540000Y-113166000D01*
X135540000Y-114926000D02*
X134340000Y-114926000D01*
G04 #@! TO.C,R32*
X146400000Y-115198000D02*
X147600000Y-115198000D01*
X147600000Y-116958000D02*
X146400000Y-116958000D01*
G04 #@! TO.C,U5*
X143775000Y-113452000D02*
X141325000Y-113452000D01*
X141975000Y-116672000D02*
X143775000Y-116672000D01*
G04 #@! TO.C,C19*
X142914000Y-83844000D02*
X142914000Y-84844000D01*
X144614000Y-84844000D02*
X144614000Y-83844000D01*
G04 #@! TO.C,C20*
X120785000Y-85559000D02*
X121785000Y-85559000D01*
X121785000Y-83859000D02*
X120785000Y-83859000D01*
G04 #@! TO.C,C21*
X144883000Y-97575000D02*
X143883000Y-97575000D01*
X143883000Y-99275000D02*
X144883000Y-99275000D01*
G04 #@! TO.C,C22*
X121515000Y-98210000D02*
X120515000Y-98210000D01*
X120515000Y-99910000D02*
X121515000Y-99910000D01*
G04 #@! TO.C,C23*
X108339000Y-108370000D02*
X107339000Y-108370000D01*
X107339000Y-110070000D02*
X108339000Y-110070000D01*
G04 #@! TO.C,C24*
X118530000Y-74795000D02*
X118530000Y-75795000D01*
X120230000Y-75795000D02*
X120230000Y-74795000D01*
G04 #@! TO.C,C25*
X146597000Y-111403000D02*
X146597000Y-112403000D01*
X148297000Y-112403000D02*
X148297000Y-111403000D01*
G04 #@! TO.C,J2*
X115697000Y-118110000D02*
X105537000Y-118110000D01*
X115697000Y-119380000D02*
X115697000Y-111760000D01*
X115697000Y-111760000D02*
X105537000Y-111760000D01*
X105537000Y-111760000D02*
X105537000Y-119380000D01*
X105537000Y-119380000D02*
X115697000Y-119380000D01*
G04 #@! TO.C,J3*
X118050000Y-72450000D02*
X118050000Y-71120000D01*
X119380000Y-72450000D02*
X118050000Y-72450000D01*
X120650000Y-72450000D02*
X120650000Y-69790000D01*
X120650000Y-69790000D02*
X138490000Y-69790000D01*
X120650000Y-72450000D02*
X138490000Y-72450000D01*
X138490000Y-72450000D02*
X138490000Y-69790000D01*
G04 #@! TO.C,J4*
X115824000Y-69850000D02*
X105664000Y-69850000D01*
X115824000Y-77470000D02*
X115824000Y-69850000D01*
X105664000Y-77470000D02*
X115824000Y-77470000D01*
X105664000Y-69850000D02*
X105664000Y-77470000D01*
X105664000Y-71120000D02*
X115824000Y-71120000D01*
G04 #@! TO.C,R33*
X123155000Y-79620000D02*
X121955000Y-79620000D01*
X121955000Y-77860000D02*
X123155000Y-77860000D01*
G04 #@! TO.C,R34*
X124810000Y-77860000D02*
X126010000Y-77860000D01*
X126010000Y-79620000D02*
X124810000Y-79620000D01*
G04 #@! TO.C,R35*
X129190000Y-79620000D02*
X127990000Y-79620000D01*
X127990000Y-77860000D02*
X129190000Y-77860000D01*
G04 #@! TO.C,R36*
X121040000Y-76480000D02*
X121040000Y-75280000D01*
X122800000Y-75280000D02*
X122800000Y-76480000D01*
G04 #@! TO.C,R37*
X125340000Y-75280000D02*
X125340000Y-76480000D01*
X123580000Y-76480000D02*
X123580000Y-75280000D01*
G04 #@! TO.C,R38*
X126120000Y-76480000D02*
X126120000Y-75280000D01*
X127880000Y-75280000D02*
X127880000Y-76480000D01*
G04 #@! TO.C,R39*
X130420000Y-75280000D02*
X130420000Y-76480000D01*
X128660000Y-76480000D02*
X128660000Y-75280000D01*
G04 #@! TO.C,R40*
X132960000Y-75280000D02*
X132960000Y-76480000D01*
X131200000Y-76480000D02*
X131200000Y-75280000D01*
G04 #@! TO.C,R41*
X133740000Y-76480000D02*
X133740000Y-75280000D01*
X135500000Y-75280000D02*
X135500000Y-76480000D01*
G04 #@! TO.C,J1*
X116840000Y-119380000D02*
X127000000Y-119380000D01*
X116840000Y-111760000D02*
X116840000Y-119380000D01*
X127000000Y-111760000D02*
X116840000Y-111760000D01*
X127000000Y-119380000D02*
X127000000Y-111760000D01*
X127000000Y-118110000D02*
X116840000Y-118110000D01*
G04 #@! TO.C,C15*
D11*
X138320142Y-105767142D02*
X138272523Y-105814761D01*
X138129666Y-105862380D01*
X138034428Y-105862380D01*
X137891571Y-105814761D01*
X137796333Y-105719523D01*
X137748714Y-105624285D01*
X137701095Y-105433809D01*
X137701095Y-105290952D01*
X137748714Y-105100476D01*
X137796333Y-105005238D01*
X137891571Y-104910000D01*
X138034428Y-104862380D01*
X138129666Y-104862380D01*
X138272523Y-104910000D01*
X138320142Y-104957619D01*
X139272523Y-105862380D02*
X138701095Y-105862380D01*
X138986809Y-105862380D02*
X138986809Y-104862380D01*
X138891571Y-105005238D01*
X138796333Y-105100476D01*
X138701095Y-105148095D01*
X140177285Y-104862380D02*
X139701095Y-104862380D01*
X139653476Y-105338571D01*
X139701095Y-105290952D01*
X139796333Y-105243333D01*
X140034428Y-105243333D01*
X140129666Y-105290952D01*
X140177285Y-105338571D01*
X140224904Y-105433809D01*
X140224904Y-105671904D01*
X140177285Y-105767142D01*
X140129666Y-105814761D01*
X140034428Y-105862380D01*
X139796333Y-105862380D01*
X139701095Y-105814761D01*
X139653476Y-105767142D01*
G04 #@! TO.C,U4*
X140868095Y-97623380D02*
X140868095Y-98432904D01*
X140915714Y-98528142D01*
X140963333Y-98575761D01*
X141058571Y-98623380D01*
X141249047Y-98623380D01*
X141344285Y-98575761D01*
X141391904Y-98528142D01*
X141439523Y-98432904D01*
X141439523Y-97623380D01*
X142344285Y-97956714D02*
X142344285Y-98623380D01*
X142106190Y-97575761D02*
X141868095Y-98290047D01*
X142487142Y-98290047D01*
G04 #@! TO.C,R28*
X131147142Y-96592380D02*
X130813809Y-96116190D01*
X130575714Y-96592380D02*
X130575714Y-95592380D01*
X130956666Y-95592380D01*
X131051904Y-95640000D01*
X131099523Y-95687619D01*
X131147142Y-95782857D01*
X131147142Y-95925714D01*
X131099523Y-96020952D01*
X131051904Y-96068571D01*
X130956666Y-96116190D01*
X130575714Y-96116190D01*
X131528095Y-95687619D02*
X131575714Y-95640000D01*
X131670952Y-95592380D01*
X131909047Y-95592380D01*
X132004285Y-95640000D01*
X132051904Y-95687619D01*
X132099523Y-95782857D01*
X132099523Y-95878095D01*
X132051904Y-96020952D01*
X131480476Y-96592380D01*
X132099523Y-96592380D01*
X132670952Y-96020952D02*
X132575714Y-95973333D01*
X132528095Y-95925714D01*
X132480476Y-95830476D01*
X132480476Y-95782857D01*
X132528095Y-95687619D01*
X132575714Y-95640000D01*
X132670952Y-95592380D01*
X132861428Y-95592380D01*
X132956666Y-95640000D01*
X133004285Y-95687619D01*
X133051904Y-95782857D01*
X133051904Y-95830476D01*
X133004285Y-95925714D01*
X132956666Y-95973333D01*
X132861428Y-96020952D01*
X132670952Y-96020952D01*
X132575714Y-96068571D01*
X132528095Y-96116190D01*
X132480476Y-96211428D01*
X132480476Y-96401904D01*
X132528095Y-96497142D01*
X132575714Y-96544761D01*
X132670952Y-96592380D01*
X132861428Y-96592380D01*
X132956666Y-96544761D01*
X133004285Y-96497142D01*
X133051904Y-96401904D01*
X133051904Y-96211428D01*
X133004285Y-96116190D01*
X132956666Y-96068571D01*
X132861428Y-96020952D01*
G04 #@! TO.C,R23*
X145915142Y-100401380D02*
X145581809Y-99925190D01*
X145343714Y-100401380D02*
X145343714Y-99401380D01*
X145724666Y-99401380D01*
X145819904Y-99449000D01*
X145867523Y-99496619D01*
X145915142Y-99591857D01*
X145915142Y-99734714D01*
X145867523Y-99829952D01*
X145819904Y-99877571D01*
X145724666Y-99925190D01*
X145343714Y-99925190D01*
X146296095Y-99496619D02*
X146343714Y-99449000D01*
X146438952Y-99401380D01*
X146677047Y-99401380D01*
X146772285Y-99449000D01*
X146819904Y-99496619D01*
X146867523Y-99591857D01*
X146867523Y-99687095D01*
X146819904Y-99829952D01*
X146248476Y-100401380D01*
X146867523Y-100401380D01*
X147200857Y-99401380D02*
X147819904Y-99401380D01*
X147486571Y-99782333D01*
X147629428Y-99782333D01*
X147724666Y-99829952D01*
X147772285Y-99877571D01*
X147819904Y-99972809D01*
X147819904Y-100210904D01*
X147772285Y-100306142D01*
X147724666Y-100353761D01*
X147629428Y-100401380D01*
X147343714Y-100401380D01*
X147248476Y-100353761D01*
X147200857Y-100306142D01*
G04 #@! TO.C,C13*
X131843142Y-103989142D02*
X131795523Y-104036761D01*
X131652666Y-104084380D01*
X131557428Y-104084380D01*
X131414571Y-104036761D01*
X131319333Y-103941523D01*
X131271714Y-103846285D01*
X131224095Y-103655809D01*
X131224095Y-103512952D01*
X131271714Y-103322476D01*
X131319333Y-103227238D01*
X131414571Y-103132000D01*
X131557428Y-103084380D01*
X131652666Y-103084380D01*
X131795523Y-103132000D01*
X131843142Y-103179619D01*
X132795523Y-104084380D02*
X132224095Y-104084380D01*
X132509809Y-104084380D02*
X132509809Y-103084380D01*
X132414571Y-103227238D01*
X132319333Y-103322476D01*
X132224095Y-103370095D01*
X133128857Y-103084380D02*
X133747904Y-103084380D01*
X133414571Y-103465333D01*
X133557428Y-103465333D01*
X133652666Y-103512952D01*
X133700285Y-103560571D01*
X133747904Y-103655809D01*
X133747904Y-103893904D01*
X133700285Y-103989142D01*
X133652666Y-104036761D01*
X133557428Y-104084380D01*
X133271714Y-104084380D01*
X133176476Y-104036761D01*
X133128857Y-103989142D01*
G04 #@! TO.C,R27*
X145051142Y-107259380D02*
X144717809Y-106783190D01*
X144479714Y-107259380D02*
X144479714Y-106259380D01*
X144860666Y-106259380D01*
X144955904Y-106307000D01*
X145003523Y-106354619D01*
X145051142Y-106449857D01*
X145051142Y-106592714D01*
X145003523Y-106687952D01*
X144955904Y-106735571D01*
X144860666Y-106783190D01*
X144479714Y-106783190D01*
X145432095Y-106354619D02*
X145479714Y-106307000D01*
X145574952Y-106259380D01*
X145813047Y-106259380D01*
X145908285Y-106307000D01*
X145955904Y-106354619D01*
X146003523Y-106449857D01*
X146003523Y-106545095D01*
X145955904Y-106687952D01*
X145384476Y-107259380D01*
X146003523Y-107259380D01*
X146336857Y-106259380D02*
X147003523Y-106259380D01*
X146574952Y-107259380D01*
G04 #@! TO.C,R24*
X134510142Y-96591380D02*
X134176809Y-96115190D01*
X133938714Y-96591380D02*
X133938714Y-95591380D01*
X134319666Y-95591380D01*
X134414904Y-95639000D01*
X134462523Y-95686619D01*
X134510142Y-95781857D01*
X134510142Y-95924714D01*
X134462523Y-96019952D01*
X134414904Y-96067571D01*
X134319666Y-96115190D01*
X133938714Y-96115190D01*
X134891095Y-95686619D02*
X134938714Y-95639000D01*
X135033952Y-95591380D01*
X135272047Y-95591380D01*
X135367285Y-95639000D01*
X135414904Y-95686619D01*
X135462523Y-95781857D01*
X135462523Y-95877095D01*
X135414904Y-96019952D01*
X134843476Y-96591380D01*
X135462523Y-96591380D01*
X136319666Y-95924714D02*
X136319666Y-96591380D01*
X136081571Y-95543761D02*
X135843476Y-96258047D01*
X136462523Y-96258047D01*
G04 #@! TO.C,C16*
X139971142Y-96115142D02*
X139923523Y-96162761D01*
X139780666Y-96210380D01*
X139685428Y-96210380D01*
X139542571Y-96162761D01*
X139447333Y-96067523D01*
X139399714Y-95972285D01*
X139352095Y-95781809D01*
X139352095Y-95638952D01*
X139399714Y-95448476D01*
X139447333Y-95353238D01*
X139542571Y-95258000D01*
X139685428Y-95210380D01*
X139780666Y-95210380D01*
X139923523Y-95258000D01*
X139971142Y-95305619D01*
X140923523Y-96210380D02*
X140352095Y-96210380D01*
X140637809Y-96210380D02*
X140637809Y-95210380D01*
X140542571Y-95353238D01*
X140447333Y-95448476D01*
X140352095Y-95496095D01*
X141780666Y-95210380D02*
X141590190Y-95210380D01*
X141494952Y-95258000D01*
X141447333Y-95305619D01*
X141352095Y-95448476D01*
X141304476Y-95638952D01*
X141304476Y-96019904D01*
X141352095Y-96115142D01*
X141399714Y-96162761D01*
X141494952Y-96210380D01*
X141685428Y-96210380D01*
X141780666Y-96162761D01*
X141828285Y-96115142D01*
X141875904Y-96019904D01*
X141875904Y-95781809D01*
X141828285Y-95686571D01*
X141780666Y-95638952D01*
X141685428Y-95591333D01*
X141494952Y-95591333D01*
X141399714Y-95638952D01*
X141352095Y-95686571D01*
X141304476Y-95781809D01*
G04 #@! TO.C,R22*
X131843142Y-102052380D02*
X131509809Y-101576190D01*
X131271714Y-102052380D02*
X131271714Y-101052380D01*
X131652666Y-101052380D01*
X131747904Y-101100000D01*
X131795523Y-101147619D01*
X131843142Y-101242857D01*
X131843142Y-101385714D01*
X131795523Y-101480952D01*
X131747904Y-101528571D01*
X131652666Y-101576190D01*
X131271714Y-101576190D01*
X132224095Y-101147619D02*
X132271714Y-101100000D01*
X132366952Y-101052380D01*
X132605047Y-101052380D01*
X132700285Y-101100000D01*
X132747904Y-101147619D01*
X132795523Y-101242857D01*
X132795523Y-101338095D01*
X132747904Y-101480952D01*
X132176476Y-102052380D01*
X132795523Y-102052380D01*
X133176476Y-101147619D02*
X133224095Y-101100000D01*
X133319333Y-101052380D01*
X133557428Y-101052380D01*
X133652666Y-101100000D01*
X133700285Y-101147619D01*
X133747904Y-101242857D01*
X133747904Y-101338095D01*
X133700285Y-101480952D01*
X133128857Y-102052380D01*
X133747904Y-102052380D01*
G04 #@! TO.C,R25*
X141114142Y-107259380D02*
X140780809Y-106783190D01*
X140542714Y-107259380D02*
X140542714Y-106259380D01*
X140923666Y-106259380D01*
X141018904Y-106307000D01*
X141066523Y-106354619D01*
X141114142Y-106449857D01*
X141114142Y-106592714D01*
X141066523Y-106687952D01*
X141018904Y-106735571D01*
X140923666Y-106783190D01*
X140542714Y-106783190D01*
X141495095Y-106354619D02*
X141542714Y-106307000D01*
X141637952Y-106259380D01*
X141876047Y-106259380D01*
X141971285Y-106307000D01*
X142018904Y-106354619D01*
X142066523Y-106449857D01*
X142066523Y-106545095D01*
X142018904Y-106687952D01*
X141447476Y-107259380D01*
X142066523Y-107259380D01*
X142971285Y-106259380D02*
X142495095Y-106259380D01*
X142447476Y-106735571D01*
X142495095Y-106687952D01*
X142590333Y-106640333D01*
X142828428Y-106640333D01*
X142923666Y-106687952D01*
X142971285Y-106735571D01*
X143018904Y-106830809D01*
X143018904Y-107068904D01*
X142971285Y-107164142D01*
X142923666Y-107211761D01*
X142828428Y-107259380D01*
X142590333Y-107259380D01*
X142495095Y-107211761D01*
X142447476Y-107164142D01*
G04 #@! TO.C,R26*
X131843142Y-100147380D02*
X131509809Y-99671190D01*
X131271714Y-100147380D02*
X131271714Y-99147380D01*
X131652666Y-99147380D01*
X131747904Y-99195000D01*
X131795523Y-99242619D01*
X131843142Y-99337857D01*
X131843142Y-99480714D01*
X131795523Y-99575952D01*
X131747904Y-99623571D01*
X131652666Y-99671190D01*
X131271714Y-99671190D01*
X132224095Y-99242619D02*
X132271714Y-99195000D01*
X132366952Y-99147380D01*
X132605047Y-99147380D01*
X132700285Y-99195000D01*
X132747904Y-99242619D01*
X132795523Y-99337857D01*
X132795523Y-99433095D01*
X132747904Y-99575952D01*
X132176476Y-100147380D01*
X132795523Y-100147380D01*
X133652666Y-99147380D02*
X133462190Y-99147380D01*
X133366952Y-99195000D01*
X133319333Y-99242619D01*
X133224095Y-99385476D01*
X133176476Y-99575952D01*
X133176476Y-99956904D01*
X133224095Y-100052142D01*
X133271714Y-100099761D01*
X133366952Y-100147380D01*
X133557428Y-100147380D01*
X133652666Y-100099761D01*
X133700285Y-100052142D01*
X133747904Y-99956904D01*
X133747904Y-99718809D01*
X133700285Y-99623571D01*
X133652666Y-99575952D01*
X133557428Y-99528333D01*
X133366952Y-99528333D01*
X133271714Y-99575952D01*
X133224095Y-99623571D01*
X133176476Y-99718809D01*
G04 #@! TO.C,C14*
X143019142Y-105513142D02*
X142971523Y-105560761D01*
X142828666Y-105608380D01*
X142733428Y-105608380D01*
X142590571Y-105560761D01*
X142495333Y-105465523D01*
X142447714Y-105370285D01*
X142400095Y-105179809D01*
X142400095Y-105036952D01*
X142447714Y-104846476D01*
X142495333Y-104751238D01*
X142590571Y-104656000D01*
X142733428Y-104608380D01*
X142828666Y-104608380D01*
X142971523Y-104656000D01*
X143019142Y-104703619D01*
X143971523Y-105608380D02*
X143400095Y-105608380D01*
X143685809Y-105608380D02*
X143685809Y-104608380D01*
X143590571Y-104751238D01*
X143495333Y-104846476D01*
X143400095Y-104894095D01*
X144828666Y-104941714D02*
X144828666Y-105608380D01*
X144590571Y-104560761D02*
X144352476Y-105275047D01*
X144971523Y-105275047D01*
G04 #@! TO.C,C11*
X115181142Y-105640142D02*
X115133523Y-105687761D01*
X114990666Y-105735380D01*
X114895428Y-105735380D01*
X114752571Y-105687761D01*
X114657333Y-105592523D01*
X114609714Y-105497285D01*
X114562095Y-105306809D01*
X114562095Y-105163952D01*
X114609714Y-104973476D01*
X114657333Y-104878238D01*
X114752571Y-104783000D01*
X114895428Y-104735380D01*
X114990666Y-104735380D01*
X115133523Y-104783000D01*
X115181142Y-104830619D01*
X116133523Y-105735380D02*
X115562095Y-105735380D01*
X115847809Y-105735380D02*
X115847809Y-104735380D01*
X115752571Y-104878238D01*
X115657333Y-104973476D01*
X115562095Y-105021095D01*
X117085904Y-105735380D02*
X116514476Y-105735380D01*
X116800190Y-105735380D02*
X116800190Y-104735380D01*
X116704952Y-104878238D01*
X116609714Y-104973476D01*
X116514476Y-105021095D01*
G04 #@! TO.C,C10*
X119880142Y-105386142D02*
X119832523Y-105433761D01*
X119689666Y-105481380D01*
X119594428Y-105481380D01*
X119451571Y-105433761D01*
X119356333Y-105338523D01*
X119308714Y-105243285D01*
X119261095Y-105052809D01*
X119261095Y-104909952D01*
X119308714Y-104719476D01*
X119356333Y-104624238D01*
X119451571Y-104529000D01*
X119594428Y-104481380D01*
X119689666Y-104481380D01*
X119832523Y-104529000D01*
X119880142Y-104576619D01*
X120832523Y-105481380D02*
X120261095Y-105481380D01*
X120546809Y-105481380D02*
X120546809Y-104481380D01*
X120451571Y-104624238D01*
X120356333Y-104719476D01*
X120261095Y-104767095D01*
X121451571Y-104481380D02*
X121546809Y-104481380D01*
X121642047Y-104529000D01*
X121689666Y-104576619D01*
X121737285Y-104671857D01*
X121784904Y-104862333D01*
X121784904Y-105100428D01*
X121737285Y-105290904D01*
X121689666Y-105386142D01*
X121642047Y-105433761D01*
X121546809Y-105481380D01*
X121451571Y-105481380D01*
X121356333Y-105433761D01*
X121308714Y-105386142D01*
X121261095Y-105290904D01*
X121213476Y-105100428D01*
X121213476Y-104862333D01*
X121261095Y-104671857D01*
X121308714Y-104576619D01*
X121356333Y-104529000D01*
X121451571Y-104481380D01*
G04 #@! TO.C,R19*
X108704142Y-100020380D02*
X108370809Y-99544190D01*
X108132714Y-100020380D02*
X108132714Y-99020380D01*
X108513666Y-99020380D01*
X108608904Y-99068000D01*
X108656523Y-99115619D01*
X108704142Y-99210857D01*
X108704142Y-99353714D01*
X108656523Y-99448952D01*
X108608904Y-99496571D01*
X108513666Y-99544190D01*
X108132714Y-99544190D01*
X109656523Y-100020380D02*
X109085095Y-100020380D01*
X109370809Y-100020380D02*
X109370809Y-99020380D01*
X109275571Y-99163238D01*
X109180333Y-99258476D01*
X109085095Y-99306095D01*
X110132714Y-100020380D02*
X110323190Y-100020380D01*
X110418428Y-99972761D01*
X110466047Y-99925142D01*
X110561285Y-99782285D01*
X110608904Y-99591809D01*
X110608904Y-99210857D01*
X110561285Y-99115619D01*
X110513666Y-99068000D01*
X110418428Y-99020380D01*
X110227952Y-99020380D01*
X110132714Y-99068000D01*
X110085095Y-99115619D01*
X110037476Y-99210857D01*
X110037476Y-99448952D01*
X110085095Y-99544190D01*
X110132714Y-99591809D01*
X110227952Y-99639428D01*
X110418428Y-99639428D01*
X110513666Y-99591809D01*
X110561285Y-99544190D01*
X110608904Y-99448952D01*
G04 #@! TO.C,C9*
X109180333Y-103862142D02*
X109132714Y-103909761D01*
X108989857Y-103957380D01*
X108894619Y-103957380D01*
X108751761Y-103909761D01*
X108656523Y-103814523D01*
X108608904Y-103719285D01*
X108561285Y-103528809D01*
X108561285Y-103385952D01*
X108608904Y-103195476D01*
X108656523Y-103100238D01*
X108751761Y-103005000D01*
X108894619Y-102957380D01*
X108989857Y-102957380D01*
X109132714Y-103005000D01*
X109180333Y-103052619D01*
X109656523Y-103957380D02*
X109847000Y-103957380D01*
X109942238Y-103909761D01*
X109989857Y-103862142D01*
X110085095Y-103719285D01*
X110132714Y-103528809D01*
X110132714Y-103147857D01*
X110085095Y-103052619D01*
X110037476Y-103005000D01*
X109942238Y-102957380D01*
X109751761Y-102957380D01*
X109656523Y-103005000D01*
X109608904Y-103052619D01*
X109561285Y-103147857D01*
X109561285Y-103385952D01*
X109608904Y-103481190D01*
X109656523Y-103528809D01*
X109751761Y-103576428D01*
X109942238Y-103576428D01*
X110037476Y-103528809D01*
X110085095Y-103481190D01*
X110132714Y-103385952D01*
G04 #@! TO.C,R15*
X108704142Y-101925380D02*
X108370809Y-101449190D01*
X108132714Y-101925380D02*
X108132714Y-100925380D01*
X108513666Y-100925380D01*
X108608904Y-100973000D01*
X108656523Y-101020619D01*
X108704142Y-101115857D01*
X108704142Y-101258714D01*
X108656523Y-101353952D01*
X108608904Y-101401571D01*
X108513666Y-101449190D01*
X108132714Y-101449190D01*
X109656523Y-101925380D02*
X109085095Y-101925380D01*
X109370809Y-101925380D02*
X109370809Y-100925380D01*
X109275571Y-101068238D01*
X109180333Y-101163476D01*
X109085095Y-101211095D01*
X110561285Y-100925380D02*
X110085095Y-100925380D01*
X110037476Y-101401571D01*
X110085095Y-101353952D01*
X110180333Y-101306333D01*
X110418428Y-101306333D01*
X110513666Y-101353952D01*
X110561285Y-101401571D01*
X110608904Y-101496809D01*
X110608904Y-101734904D01*
X110561285Y-101830142D01*
X110513666Y-101877761D01*
X110418428Y-101925380D01*
X110180333Y-101925380D01*
X110085095Y-101877761D01*
X110037476Y-101830142D01*
G04 #@! TO.C,R18*
X117975142Y-107132380D02*
X117641809Y-106656190D01*
X117403714Y-107132380D02*
X117403714Y-106132380D01*
X117784666Y-106132380D01*
X117879904Y-106180000D01*
X117927523Y-106227619D01*
X117975142Y-106322857D01*
X117975142Y-106465714D01*
X117927523Y-106560952D01*
X117879904Y-106608571D01*
X117784666Y-106656190D01*
X117403714Y-106656190D01*
X118927523Y-107132380D02*
X118356095Y-107132380D01*
X118641809Y-107132380D02*
X118641809Y-106132380D01*
X118546571Y-106275238D01*
X118451333Y-106370476D01*
X118356095Y-106418095D01*
X119498952Y-106560952D02*
X119403714Y-106513333D01*
X119356095Y-106465714D01*
X119308476Y-106370476D01*
X119308476Y-106322857D01*
X119356095Y-106227619D01*
X119403714Y-106180000D01*
X119498952Y-106132380D01*
X119689428Y-106132380D01*
X119784666Y-106180000D01*
X119832285Y-106227619D01*
X119879904Y-106322857D01*
X119879904Y-106370476D01*
X119832285Y-106465714D01*
X119784666Y-106513333D01*
X119689428Y-106560952D01*
X119498952Y-106560952D01*
X119403714Y-106608571D01*
X119356095Y-106656190D01*
X119308476Y-106751428D01*
X119308476Y-106941904D01*
X119356095Y-107037142D01*
X119403714Y-107084761D01*
X119498952Y-107132380D01*
X119689428Y-107132380D01*
X119784666Y-107084761D01*
X119832285Y-107037142D01*
X119879904Y-106941904D01*
X119879904Y-106751428D01*
X119832285Y-106656190D01*
X119784666Y-106608571D01*
X119689428Y-106560952D01*
G04 #@! TO.C,R21*
X108008142Y-96465380D02*
X107674809Y-95989190D01*
X107436714Y-96465380D02*
X107436714Y-95465380D01*
X107817666Y-95465380D01*
X107912904Y-95513000D01*
X107960523Y-95560619D01*
X108008142Y-95655857D01*
X108008142Y-95798714D01*
X107960523Y-95893952D01*
X107912904Y-95941571D01*
X107817666Y-95989190D01*
X107436714Y-95989190D01*
X108389095Y-95560619D02*
X108436714Y-95513000D01*
X108531952Y-95465380D01*
X108770047Y-95465380D01*
X108865285Y-95513000D01*
X108912904Y-95560619D01*
X108960523Y-95655857D01*
X108960523Y-95751095D01*
X108912904Y-95893952D01*
X108341476Y-96465380D01*
X108960523Y-96465380D01*
X109912904Y-96465380D02*
X109341476Y-96465380D01*
X109627190Y-96465380D02*
X109627190Y-95465380D01*
X109531952Y-95608238D01*
X109436714Y-95703476D01*
X109341476Y-95751095D01*
G04 #@! TO.C,R20*
X121912142Y-107132380D02*
X121578809Y-106656190D01*
X121340714Y-107132380D02*
X121340714Y-106132380D01*
X121721666Y-106132380D01*
X121816904Y-106180000D01*
X121864523Y-106227619D01*
X121912142Y-106322857D01*
X121912142Y-106465714D01*
X121864523Y-106560952D01*
X121816904Y-106608571D01*
X121721666Y-106656190D01*
X121340714Y-106656190D01*
X122293095Y-106227619D02*
X122340714Y-106180000D01*
X122435952Y-106132380D01*
X122674047Y-106132380D01*
X122769285Y-106180000D01*
X122816904Y-106227619D01*
X122864523Y-106322857D01*
X122864523Y-106418095D01*
X122816904Y-106560952D01*
X122245476Y-107132380D01*
X122864523Y-107132380D01*
X123483571Y-106132380D02*
X123578809Y-106132380D01*
X123674047Y-106180000D01*
X123721666Y-106227619D01*
X123769285Y-106322857D01*
X123816904Y-106513333D01*
X123816904Y-106751428D01*
X123769285Y-106941904D01*
X123721666Y-107037142D01*
X123674047Y-107084761D01*
X123578809Y-107132380D01*
X123483571Y-107132380D01*
X123388333Y-107084761D01*
X123340714Y-107037142D01*
X123293095Y-106941904D01*
X123245476Y-106751428D01*
X123245476Y-106513333D01*
X123293095Y-106322857D01*
X123340714Y-106227619D01*
X123388333Y-106180000D01*
X123483571Y-106132380D01*
G04 #@! TO.C,R17*
X111371142Y-96464380D02*
X111037809Y-95988190D01*
X110799714Y-96464380D02*
X110799714Y-95464380D01*
X111180666Y-95464380D01*
X111275904Y-95512000D01*
X111323523Y-95559619D01*
X111371142Y-95654857D01*
X111371142Y-95797714D01*
X111323523Y-95892952D01*
X111275904Y-95940571D01*
X111180666Y-95988190D01*
X110799714Y-95988190D01*
X112323523Y-96464380D02*
X111752095Y-96464380D01*
X112037809Y-96464380D02*
X112037809Y-95464380D01*
X111942571Y-95607238D01*
X111847333Y-95702476D01*
X111752095Y-95750095D01*
X112656857Y-95464380D02*
X113323523Y-95464380D01*
X112894952Y-96464380D01*
G04 #@! TO.C,C12*
X116832142Y-95988142D02*
X116784523Y-96035761D01*
X116641666Y-96083380D01*
X116546428Y-96083380D01*
X116403571Y-96035761D01*
X116308333Y-95940523D01*
X116260714Y-95845285D01*
X116213095Y-95654809D01*
X116213095Y-95511952D01*
X116260714Y-95321476D01*
X116308333Y-95226238D01*
X116403571Y-95131000D01*
X116546428Y-95083380D01*
X116641666Y-95083380D01*
X116784523Y-95131000D01*
X116832142Y-95178619D01*
X117784523Y-96083380D02*
X117213095Y-96083380D01*
X117498809Y-96083380D02*
X117498809Y-95083380D01*
X117403571Y-95226238D01*
X117308333Y-95321476D01*
X117213095Y-95369095D01*
X118165476Y-95178619D02*
X118213095Y-95131000D01*
X118308333Y-95083380D01*
X118546428Y-95083380D01*
X118641666Y-95131000D01*
X118689285Y-95178619D01*
X118736904Y-95273857D01*
X118736904Y-95369095D01*
X118689285Y-95511952D01*
X118117857Y-96083380D01*
X118736904Y-96083380D01*
G04 #@! TO.C,R16*
X125346142Y-101925380D02*
X125012809Y-101449190D01*
X124774714Y-101925380D02*
X124774714Y-100925380D01*
X125155666Y-100925380D01*
X125250904Y-100973000D01*
X125298523Y-101020619D01*
X125346142Y-101115857D01*
X125346142Y-101258714D01*
X125298523Y-101353952D01*
X125250904Y-101401571D01*
X125155666Y-101449190D01*
X124774714Y-101449190D01*
X126298523Y-101925380D02*
X125727095Y-101925380D01*
X126012809Y-101925380D02*
X126012809Y-100925380D01*
X125917571Y-101068238D01*
X125822333Y-101163476D01*
X125727095Y-101211095D01*
X127155666Y-100925380D02*
X126965190Y-100925380D01*
X126869952Y-100973000D01*
X126822333Y-101020619D01*
X126727095Y-101163476D01*
X126679476Y-101353952D01*
X126679476Y-101734904D01*
X126727095Y-101830142D01*
X126774714Y-101877761D01*
X126869952Y-101925380D01*
X127060428Y-101925380D01*
X127155666Y-101877761D01*
X127203285Y-101830142D01*
X127250904Y-101734904D01*
X127250904Y-101496809D01*
X127203285Y-101401571D01*
X127155666Y-101353952D01*
X127060428Y-101306333D01*
X126869952Y-101306333D01*
X126774714Y-101353952D01*
X126727095Y-101401571D01*
X126679476Y-101496809D01*
G04 #@! TO.C,U3*
X117729095Y-97496380D02*
X117729095Y-98305904D01*
X117776714Y-98401142D01*
X117824333Y-98448761D01*
X117919571Y-98496380D01*
X118110047Y-98496380D01*
X118205285Y-98448761D01*
X118252904Y-98401142D01*
X118300523Y-98305904D01*
X118300523Y-97496380D01*
X118681476Y-97496380D02*
X119300523Y-97496380D01*
X118967190Y-97877333D01*
X119110047Y-97877333D01*
X119205285Y-97924952D01*
X119252904Y-97972571D01*
X119300523Y-98067809D01*
X119300523Y-98305904D01*
X119252904Y-98401142D01*
X119205285Y-98448761D01*
X119110047Y-98496380D01*
X118824333Y-98496380D01*
X118729095Y-98448761D01*
X118681476Y-98401142D01*
G04 #@! TO.C,C7*
X138517333Y-91797142D02*
X138469714Y-91844761D01*
X138326857Y-91892380D01*
X138231619Y-91892380D01*
X138088761Y-91844761D01*
X137993523Y-91749523D01*
X137945904Y-91654285D01*
X137898285Y-91463809D01*
X137898285Y-91320952D01*
X137945904Y-91130476D01*
X137993523Y-91035238D01*
X138088761Y-90940000D01*
X138231619Y-90892380D01*
X138326857Y-90892380D01*
X138469714Y-90940000D01*
X138517333Y-90987619D01*
X138850666Y-90892380D02*
X139517333Y-90892380D01*
X139088761Y-91892380D01*
G04 #@! TO.C,C6*
X143216333Y-91543142D02*
X143168714Y-91590761D01*
X143025857Y-91638380D01*
X142930619Y-91638380D01*
X142787761Y-91590761D01*
X142692523Y-91495523D01*
X142644904Y-91400285D01*
X142597285Y-91209809D01*
X142597285Y-91066952D01*
X142644904Y-90876476D01*
X142692523Y-90781238D01*
X142787761Y-90686000D01*
X142930619Y-90638380D01*
X143025857Y-90638380D01*
X143168714Y-90686000D01*
X143216333Y-90733619D01*
X144073476Y-90638380D02*
X143883000Y-90638380D01*
X143787761Y-90686000D01*
X143740142Y-90733619D01*
X143644904Y-90876476D01*
X143597285Y-91066952D01*
X143597285Y-91447904D01*
X143644904Y-91543142D01*
X143692523Y-91590761D01*
X143787761Y-91638380D01*
X143978238Y-91638380D01*
X144073476Y-91590761D01*
X144121095Y-91543142D01*
X144168714Y-91447904D01*
X144168714Y-91209809D01*
X144121095Y-91114571D01*
X144073476Y-91066952D01*
X143978238Y-91019333D01*
X143787761Y-91019333D01*
X143692523Y-91066952D01*
X143644904Y-91114571D01*
X143597285Y-91209809D01*
G04 #@! TO.C,C8*
X140168333Y-82145142D02*
X140120714Y-82192761D01*
X139977857Y-82240380D01*
X139882619Y-82240380D01*
X139739761Y-82192761D01*
X139644523Y-82097523D01*
X139596904Y-82002285D01*
X139549285Y-81811809D01*
X139549285Y-81668952D01*
X139596904Y-81478476D01*
X139644523Y-81383238D01*
X139739761Y-81288000D01*
X139882619Y-81240380D01*
X139977857Y-81240380D01*
X140120714Y-81288000D01*
X140168333Y-81335619D01*
X140739761Y-81668952D02*
X140644523Y-81621333D01*
X140596904Y-81573714D01*
X140549285Y-81478476D01*
X140549285Y-81430857D01*
X140596904Y-81335619D01*
X140644523Y-81288000D01*
X140739761Y-81240380D01*
X140930238Y-81240380D01*
X141025476Y-81288000D01*
X141073095Y-81335619D01*
X141120714Y-81430857D01*
X141120714Y-81478476D01*
X141073095Y-81573714D01*
X141025476Y-81621333D01*
X140930238Y-81668952D01*
X140739761Y-81668952D01*
X140644523Y-81716571D01*
X140596904Y-81764190D01*
X140549285Y-81859428D01*
X140549285Y-82049904D01*
X140596904Y-82145142D01*
X140644523Y-82192761D01*
X140739761Y-82240380D01*
X140930238Y-82240380D01*
X141025476Y-82192761D01*
X141073095Y-82145142D01*
X141120714Y-82049904D01*
X141120714Y-81859428D01*
X141073095Y-81764190D01*
X141025476Y-81716571D01*
X140930238Y-81668952D01*
G04 #@! TO.C,C5*
X132040333Y-90019142D02*
X131992714Y-90066761D01*
X131849857Y-90114380D01*
X131754619Y-90114380D01*
X131611761Y-90066761D01*
X131516523Y-89971523D01*
X131468904Y-89876285D01*
X131421285Y-89685809D01*
X131421285Y-89542952D01*
X131468904Y-89352476D01*
X131516523Y-89257238D01*
X131611761Y-89162000D01*
X131754619Y-89114380D01*
X131849857Y-89114380D01*
X131992714Y-89162000D01*
X132040333Y-89209619D01*
X132945095Y-89114380D02*
X132468904Y-89114380D01*
X132421285Y-89590571D01*
X132468904Y-89542952D01*
X132564142Y-89495333D01*
X132802238Y-89495333D01*
X132897476Y-89542952D01*
X132945095Y-89590571D01*
X132992714Y-89685809D01*
X132992714Y-89923904D01*
X132945095Y-90019142D01*
X132897476Y-90066761D01*
X132802238Y-90114380D01*
X132564142Y-90114380D01*
X132468904Y-90066761D01*
X132421285Y-90019142D01*
G04 #@! TO.C,U2*
X140589095Y-83653380D02*
X140589095Y-84462904D01*
X140636714Y-84558142D01*
X140684333Y-84605761D01*
X140779571Y-84653380D01*
X140970047Y-84653380D01*
X141065285Y-84605761D01*
X141112904Y-84558142D01*
X141160523Y-84462904D01*
X141160523Y-83653380D01*
X141589095Y-83748619D02*
X141636714Y-83701000D01*
X141731952Y-83653380D01*
X141970047Y-83653380D01*
X142065285Y-83701000D01*
X142112904Y-83748619D01*
X142160523Y-83843857D01*
X142160523Y-83939095D01*
X142112904Y-84081952D01*
X141541476Y-84653380D01*
X142160523Y-84653380D01*
G04 #@! TO.C,R14*
X130868142Y-82622380D02*
X130534809Y-82146190D01*
X130296714Y-82622380D02*
X130296714Y-81622380D01*
X130677666Y-81622380D01*
X130772904Y-81670000D01*
X130820523Y-81717619D01*
X130868142Y-81812857D01*
X130868142Y-81955714D01*
X130820523Y-82050952D01*
X130772904Y-82098571D01*
X130677666Y-82146190D01*
X130296714Y-82146190D01*
X131820523Y-82622380D02*
X131249095Y-82622380D01*
X131534809Y-82622380D02*
X131534809Y-81622380D01*
X131439571Y-81765238D01*
X131344333Y-81860476D01*
X131249095Y-81908095D01*
X132677666Y-81955714D02*
X132677666Y-82622380D01*
X132439571Y-81574761D02*
X132201476Y-82289047D01*
X132820523Y-82289047D01*
G04 #@! TO.C,R10*
X134231142Y-82621380D02*
X133897809Y-82145190D01*
X133659714Y-82621380D02*
X133659714Y-81621380D01*
X134040666Y-81621380D01*
X134135904Y-81669000D01*
X134183523Y-81716619D01*
X134231142Y-81811857D01*
X134231142Y-81954714D01*
X134183523Y-82049952D01*
X134135904Y-82097571D01*
X134040666Y-82145190D01*
X133659714Y-82145190D01*
X135183523Y-82621380D02*
X134612095Y-82621380D01*
X134897809Y-82621380D02*
X134897809Y-81621380D01*
X134802571Y-81764238D01*
X134707333Y-81859476D01*
X134612095Y-81907095D01*
X135802571Y-81621380D02*
X135897809Y-81621380D01*
X135993047Y-81669000D01*
X136040666Y-81716619D01*
X136088285Y-81811857D01*
X136135904Y-82002333D01*
X136135904Y-82240428D01*
X136088285Y-82430904D01*
X136040666Y-82526142D01*
X135993047Y-82573761D01*
X135897809Y-82621380D01*
X135802571Y-82621380D01*
X135707333Y-82573761D01*
X135659714Y-82526142D01*
X135612095Y-82430904D01*
X135564476Y-82240428D01*
X135564476Y-82002333D01*
X135612095Y-81811857D01*
X135659714Y-81716619D01*
X135707333Y-81669000D01*
X135802571Y-81621380D01*
G04 #@! TO.C,R11*
X140835142Y-93289380D02*
X140501809Y-92813190D01*
X140263714Y-93289380D02*
X140263714Y-92289380D01*
X140644666Y-92289380D01*
X140739904Y-92337000D01*
X140787523Y-92384619D01*
X140835142Y-92479857D01*
X140835142Y-92622714D01*
X140787523Y-92717952D01*
X140739904Y-92765571D01*
X140644666Y-92813190D01*
X140263714Y-92813190D01*
X141787523Y-93289380D02*
X141216095Y-93289380D01*
X141501809Y-93289380D02*
X141501809Y-92289380D01*
X141406571Y-92432238D01*
X141311333Y-92527476D01*
X141216095Y-92575095D01*
X142739904Y-93289380D02*
X142168476Y-93289380D01*
X142454190Y-93289380D02*
X142454190Y-92289380D01*
X142358952Y-92432238D01*
X142263714Y-92527476D01*
X142168476Y-92575095D01*
G04 #@! TO.C,R8*
X132040333Y-88082380D02*
X131707000Y-87606190D01*
X131468904Y-88082380D02*
X131468904Y-87082380D01*
X131849857Y-87082380D01*
X131945095Y-87130000D01*
X131992714Y-87177619D01*
X132040333Y-87272857D01*
X132040333Y-87415714D01*
X131992714Y-87510952D01*
X131945095Y-87558571D01*
X131849857Y-87606190D01*
X131468904Y-87606190D01*
X132611761Y-87510952D02*
X132516523Y-87463333D01*
X132468904Y-87415714D01*
X132421285Y-87320476D01*
X132421285Y-87272857D01*
X132468904Y-87177619D01*
X132516523Y-87130000D01*
X132611761Y-87082380D01*
X132802238Y-87082380D01*
X132897476Y-87130000D01*
X132945095Y-87177619D01*
X132992714Y-87272857D01*
X132992714Y-87320476D01*
X132945095Y-87415714D01*
X132897476Y-87463333D01*
X132802238Y-87510952D01*
X132611761Y-87510952D01*
X132516523Y-87558571D01*
X132468904Y-87606190D01*
X132421285Y-87701428D01*
X132421285Y-87891904D01*
X132468904Y-87987142D01*
X132516523Y-88034761D01*
X132611761Y-88082380D01*
X132802238Y-88082380D01*
X132897476Y-88034761D01*
X132945095Y-87987142D01*
X132992714Y-87891904D01*
X132992714Y-87701428D01*
X132945095Y-87606190D01*
X132897476Y-87558571D01*
X132802238Y-87510952D01*
G04 #@! TO.C,R9*
X146137333Y-86431380D02*
X145804000Y-85955190D01*
X145565904Y-86431380D02*
X145565904Y-85431380D01*
X145946857Y-85431380D01*
X146042095Y-85479000D01*
X146089714Y-85526619D01*
X146137333Y-85621857D01*
X146137333Y-85764714D01*
X146089714Y-85859952D01*
X146042095Y-85907571D01*
X145946857Y-85955190D01*
X145565904Y-85955190D01*
X146613523Y-86431380D02*
X146804000Y-86431380D01*
X146899238Y-86383761D01*
X146946857Y-86336142D01*
X147042095Y-86193285D01*
X147089714Y-86002809D01*
X147089714Y-85621857D01*
X147042095Y-85526619D01*
X146994476Y-85479000D01*
X146899238Y-85431380D01*
X146708761Y-85431380D01*
X146613523Y-85479000D01*
X146565904Y-85526619D01*
X146518285Y-85621857D01*
X146518285Y-85859952D01*
X146565904Y-85955190D01*
X146613523Y-86002809D01*
X146708761Y-86050428D01*
X146899238Y-86050428D01*
X146994476Y-86002809D01*
X147042095Y-85955190D01*
X147089714Y-85859952D01*
G04 #@! TO.C,R12*
X131564142Y-86177380D02*
X131230809Y-85701190D01*
X130992714Y-86177380D02*
X130992714Y-85177380D01*
X131373666Y-85177380D01*
X131468904Y-85225000D01*
X131516523Y-85272619D01*
X131564142Y-85367857D01*
X131564142Y-85510714D01*
X131516523Y-85605952D01*
X131468904Y-85653571D01*
X131373666Y-85701190D01*
X130992714Y-85701190D01*
X132516523Y-86177380D02*
X131945095Y-86177380D01*
X132230809Y-86177380D02*
X132230809Y-85177380D01*
X132135571Y-85320238D01*
X132040333Y-85415476D01*
X131945095Y-85463095D01*
X132897476Y-85272619D02*
X132945095Y-85225000D01*
X133040333Y-85177380D01*
X133278428Y-85177380D01*
X133373666Y-85225000D01*
X133421285Y-85272619D01*
X133468904Y-85367857D01*
X133468904Y-85463095D01*
X133421285Y-85605952D01*
X132849857Y-86177380D01*
X133468904Y-86177380D01*
G04 #@! TO.C,R13*
X144772142Y-93289380D02*
X144438809Y-92813190D01*
X144200714Y-93289380D02*
X144200714Y-92289380D01*
X144581666Y-92289380D01*
X144676904Y-92337000D01*
X144724523Y-92384619D01*
X144772142Y-92479857D01*
X144772142Y-92622714D01*
X144724523Y-92717952D01*
X144676904Y-92765571D01*
X144581666Y-92813190D01*
X144200714Y-92813190D01*
X145724523Y-93289380D02*
X145153095Y-93289380D01*
X145438809Y-93289380D02*
X145438809Y-92289380D01*
X145343571Y-92432238D01*
X145248333Y-92527476D01*
X145153095Y-92575095D01*
X146057857Y-92289380D02*
X146676904Y-92289380D01*
X146343571Y-92670333D01*
X146486428Y-92670333D01*
X146581666Y-92717952D01*
X146629285Y-92765571D01*
X146676904Y-92860809D01*
X146676904Y-93098904D01*
X146629285Y-93194142D01*
X146581666Y-93241761D01*
X146486428Y-93289380D01*
X146200714Y-93289380D01*
X146105476Y-93241761D01*
X146057857Y-93194142D01*
G04 #@! TO.C,R1*
X108682333Y-87955380D02*
X108349000Y-87479190D01*
X108110904Y-87955380D02*
X108110904Y-86955380D01*
X108491857Y-86955380D01*
X108587095Y-87003000D01*
X108634714Y-87050619D01*
X108682333Y-87145857D01*
X108682333Y-87288714D01*
X108634714Y-87383952D01*
X108587095Y-87431571D01*
X108491857Y-87479190D01*
X108110904Y-87479190D01*
X109634714Y-87955380D02*
X109063285Y-87955380D01*
X109349000Y-87955380D02*
X109349000Y-86955380D01*
X109253761Y-87098238D01*
X109158523Y-87193476D01*
X109063285Y-87241095D01*
G04 #@! TO.C,R2*
X125324333Y-87955380D02*
X124991000Y-87479190D01*
X124752904Y-87955380D02*
X124752904Y-86955380D01*
X125133857Y-86955380D01*
X125229095Y-87003000D01*
X125276714Y-87050619D01*
X125324333Y-87145857D01*
X125324333Y-87288714D01*
X125276714Y-87383952D01*
X125229095Y-87431571D01*
X125133857Y-87479190D01*
X124752904Y-87479190D01*
X125705285Y-87050619D02*
X125752904Y-87003000D01*
X125848142Y-86955380D01*
X126086238Y-86955380D01*
X126181476Y-87003000D01*
X126229095Y-87050619D01*
X126276714Y-87145857D01*
X126276714Y-87241095D01*
X126229095Y-87383952D01*
X125657666Y-87955380D01*
X126276714Y-87955380D01*
G04 #@! TO.C,R3*
X111349333Y-82494380D02*
X111016000Y-82018190D01*
X110777904Y-82494380D02*
X110777904Y-81494380D01*
X111158857Y-81494380D01*
X111254095Y-81542000D01*
X111301714Y-81589619D01*
X111349333Y-81684857D01*
X111349333Y-81827714D01*
X111301714Y-81922952D01*
X111254095Y-81970571D01*
X111158857Y-82018190D01*
X110777904Y-82018190D01*
X111682666Y-81494380D02*
X112301714Y-81494380D01*
X111968380Y-81875333D01*
X112111238Y-81875333D01*
X112206476Y-81922952D01*
X112254095Y-81970571D01*
X112301714Y-82065809D01*
X112301714Y-82303904D01*
X112254095Y-82399142D01*
X112206476Y-82446761D01*
X112111238Y-82494380D01*
X111825523Y-82494380D01*
X111730285Y-82446761D01*
X111682666Y-82399142D01*
G04 #@! TO.C,R4*
X117953333Y-93162380D02*
X117620000Y-92686190D01*
X117381904Y-93162380D02*
X117381904Y-92162380D01*
X117762857Y-92162380D01*
X117858095Y-92210000D01*
X117905714Y-92257619D01*
X117953333Y-92352857D01*
X117953333Y-92495714D01*
X117905714Y-92590952D01*
X117858095Y-92638571D01*
X117762857Y-92686190D01*
X117381904Y-92686190D01*
X118810476Y-92495714D02*
X118810476Y-93162380D01*
X118572380Y-92114761D02*
X118334285Y-92829047D01*
X118953333Y-92829047D01*
G04 #@! TO.C,R5*
X108682333Y-86050380D02*
X108349000Y-85574190D01*
X108110904Y-86050380D02*
X108110904Y-85050380D01*
X108491857Y-85050380D01*
X108587095Y-85098000D01*
X108634714Y-85145619D01*
X108682333Y-85240857D01*
X108682333Y-85383714D01*
X108634714Y-85478952D01*
X108587095Y-85526571D01*
X108491857Y-85574190D01*
X108110904Y-85574190D01*
X109587095Y-85050380D02*
X109110904Y-85050380D01*
X109063285Y-85526571D01*
X109110904Y-85478952D01*
X109206142Y-85431333D01*
X109444238Y-85431333D01*
X109539476Y-85478952D01*
X109587095Y-85526571D01*
X109634714Y-85621809D01*
X109634714Y-85859904D01*
X109587095Y-85955142D01*
X109539476Y-86002761D01*
X109444238Y-86050380D01*
X109206142Y-86050380D01*
X109110904Y-86002761D01*
X109063285Y-85955142D01*
G04 #@! TO.C,R6*
X121890333Y-93162380D02*
X121557000Y-92686190D01*
X121318904Y-93162380D02*
X121318904Y-92162380D01*
X121699857Y-92162380D01*
X121795095Y-92210000D01*
X121842714Y-92257619D01*
X121890333Y-92352857D01*
X121890333Y-92495714D01*
X121842714Y-92590952D01*
X121795095Y-92638571D01*
X121699857Y-92686190D01*
X121318904Y-92686190D01*
X122747476Y-92162380D02*
X122557000Y-92162380D01*
X122461761Y-92210000D01*
X122414142Y-92257619D01*
X122318904Y-92400476D01*
X122271285Y-92590952D01*
X122271285Y-92971904D01*
X122318904Y-93067142D01*
X122366523Y-93114761D01*
X122461761Y-93162380D01*
X122652238Y-93162380D01*
X122747476Y-93114761D01*
X122795095Y-93067142D01*
X122842714Y-92971904D01*
X122842714Y-92733809D01*
X122795095Y-92638571D01*
X122747476Y-92590952D01*
X122652238Y-92543333D01*
X122461761Y-92543333D01*
X122366523Y-92590952D01*
X122318904Y-92638571D01*
X122271285Y-92733809D01*
G04 #@! TO.C,R7*
X107986333Y-82495380D02*
X107653000Y-82019190D01*
X107414904Y-82495380D02*
X107414904Y-81495380D01*
X107795857Y-81495380D01*
X107891095Y-81543000D01*
X107938714Y-81590619D01*
X107986333Y-81685857D01*
X107986333Y-81828714D01*
X107938714Y-81923952D01*
X107891095Y-81971571D01*
X107795857Y-82019190D01*
X107414904Y-82019190D01*
X108319666Y-81495380D02*
X108986333Y-81495380D01*
X108557761Y-82495380D01*
G04 #@! TO.C,U1*
X117231095Y-83526380D02*
X117231095Y-84335904D01*
X117278714Y-84431142D01*
X117326333Y-84478761D01*
X117421571Y-84526380D01*
X117612047Y-84526380D01*
X117707285Y-84478761D01*
X117754904Y-84431142D01*
X117802523Y-84335904D01*
X117802523Y-83526380D01*
X118802523Y-84526380D02*
X118231095Y-84526380D01*
X118516809Y-84526380D02*
X118516809Y-83526380D01*
X118421571Y-83669238D01*
X118326333Y-83764476D01*
X118231095Y-83812095D01*
G04 #@! TO.C,C1*
X108682333Y-89892142D02*
X108634714Y-89939761D01*
X108491857Y-89987380D01*
X108396619Y-89987380D01*
X108253761Y-89939761D01*
X108158523Y-89844523D01*
X108110904Y-89749285D01*
X108063285Y-89558809D01*
X108063285Y-89415952D01*
X108110904Y-89225476D01*
X108158523Y-89130238D01*
X108253761Y-89035000D01*
X108396619Y-88987380D01*
X108491857Y-88987380D01*
X108634714Y-89035000D01*
X108682333Y-89082619D01*
X109634714Y-89987380D02*
X109063285Y-89987380D01*
X109349000Y-89987380D02*
X109349000Y-88987380D01*
X109253761Y-89130238D01*
X109158523Y-89225476D01*
X109063285Y-89273095D01*
G04 #@! TO.C,C2*
X119858333Y-91416142D02*
X119810714Y-91463761D01*
X119667857Y-91511380D01*
X119572619Y-91511380D01*
X119429761Y-91463761D01*
X119334523Y-91368523D01*
X119286904Y-91273285D01*
X119239285Y-91082809D01*
X119239285Y-90939952D01*
X119286904Y-90749476D01*
X119334523Y-90654238D01*
X119429761Y-90559000D01*
X119572619Y-90511380D01*
X119667857Y-90511380D01*
X119810714Y-90559000D01*
X119858333Y-90606619D01*
X120239285Y-90606619D02*
X120286904Y-90559000D01*
X120382142Y-90511380D01*
X120620238Y-90511380D01*
X120715476Y-90559000D01*
X120763095Y-90606619D01*
X120810714Y-90701857D01*
X120810714Y-90797095D01*
X120763095Y-90939952D01*
X120191666Y-91511380D01*
X120810714Y-91511380D01*
G04 #@! TO.C,C3*
X115159333Y-91670142D02*
X115111714Y-91717761D01*
X114968857Y-91765380D01*
X114873619Y-91765380D01*
X114730761Y-91717761D01*
X114635523Y-91622523D01*
X114587904Y-91527285D01*
X114540285Y-91336809D01*
X114540285Y-91193952D01*
X114587904Y-91003476D01*
X114635523Y-90908238D01*
X114730761Y-90813000D01*
X114873619Y-90765380D01*
X114968857Y-90765380D01*
X115111714Y-90813000D01*
X115159333Y-90860619D01*
X115492666Y-90765380D02*
X116111714Y-90765380D01*
X115778380Y-91146333D01*
X115921238Y-91146333D01*
X116016476Y-91193952D01*
X116064095Y-91241571D01*
X116111714Y-91336809D01*
X116111714Y-91574904D01*
X116064095Y-91670142D01*
X116016476Y-91717761D01*
X115921238Y-91765380D01*
X115635523Y-91765380D01*
X115540285Y-91717761D01*
X115492666Y-91670142D01*
G04 #@! TO.C,C4*
X116810333Y-82018142D02*
X116762714Y-82065761D01*
X116619857Y-82113380D01*
X116524619Y-82113380D01*
X116381761Y-82065761D01*
X116286523Y-81970523D01*
X116238904Y-81875285D01*
X116191285Y-81684809D01*
X116191285Y-81541952D01*
X116238904Y-81351476D01*
X116286523Y-81256238D01*
X116381761Y-81161000D01*
X116524619Y-81113380D01*
X116619857Y-81113380D01*
X116762714Y-81161000D01*
X116810333Y-81208619D01*
X117667476Y-81446714D02*
X117667476Y-82113380D01*
X117429380Y-81065761D02*
X117191285Y-81780047D01*
X117810333Y-81780047D01*
G04 #@! TO.C,C17*
X144264142Y-109069142D02*
X144216523Y-109116761D01*
X144073666Y-109164380D01*
X143978428Y-109164380D01*
X143835571Y-109116761D01*
X143740333Y-109021523D01*
X143692714Y-108926285D01*
X143645095Y-108735809D01*
X143645095Y-108592952D01*
X143692714Y-108402476D01*
X143740333Y-108307238D01*
X143835571Y-108212000D01*
X143978428Y-108164380D01*
X144073666Y-108164380D01*
X144216523Y-108212000D01*
X144264142Y-108259619D01*
X145216523Y-109164380D02*
X144645095Y-109164380D01*
X144930809Y-109164380D02*
X144930809Y-108164380D01*
X144835571Y-108307238D01*
X144740333Y-108402476D01*
X144645095Y-108450095D01*
X145549857Y-108164380D02*
X146216523Y-108164380D01*
X145787952Y-109164380D01*
G04 #@! TO.C,C18*
X141089142Y-109069142D02*
X141041523Y-109116761D01*
X140898666Y-109164380D01*
X140803428Y-109164380D01*
X140660571Y-109116761D01*
X140565333Y-109021523D01*
X140517714Y-108926285D01*
X140470095Y-108735809D01*
X140470095Y-108592952D01*
X140517714Y-108402476D01*
X140565333Y-108307238D01*
X140660571Y-108212000D01*
X140803428Y-108164380D01*
X140898666Y-108164380D01*
X141041523Y-108212000D01*
X141089142Y-108259619D01*
X142041523Y-109164380D02*
X141470095Y-109164380D01*
X141755809Y-109164380D02*
X141755809Y-108164380D01*
X141660571Y-108307238D01*
X141565333Y-108402476D01*
X141470095Y-108450095D01*
X142612952Y-108592952D02*
X142517714Y-108545333D01*
X142470095Y-108497714D01*
X142422476Y-108402476D01*
X142422476Y-108354857D01*
X142470095Y-108259619D01*
X142517714Y-108212000D01*
X142612952Y-108164380D01*
X142803428Y-108164380D01*
X142898666Y-108212000D01*
X142946285Y-108259619D01*
X142993904Y-108354857D01*
X142993904Y-108402476D01*
X142946285Y-108497714D01*
X142898666Y-108545333D01*
X142803428Y-108592952D01*
X142612952Y-108592952D01*
X142517714Y-108640571D01*
X142470095Y-108688190D01*
X142422476Y-108783428D01*
X142422476Y-108973904D01*
X142470095Y-109069142D01*
X142517714Y-109116761D01*
X142612952Y-109164380D01*
X142803428Y-109164380D01*
X142898666Y-109116761D01*
X142946285Y-109069142D01*
X142993904Y-108973904D01*
X142993904Y-108783428D01*
X142946285Y-108688190D01*
X142898666Y-108640571D01*
X142803428Y-108592952D01*
G04 #@! TO.C,D1*
X136509380Y-112784095D02*
X135509380Y-112784095D01*
X135509380Y-112546000D01*
X135557000Y-112403142D01*
X135652238Y-112307904D01*
X135747476Y-112260285D01*
X135937952Y-112212666D01*
X136080809Y-112212666D01*
X136271285Y-112260285D01*
X136366523Y-112307904D01*
X136461761Y-112403142D01*
X136509380Y-112546000D01*
X136509380Y-112784095D01*
X136509380Y-111260285D02*
X136509380Y-111831714D01*
X136509380Y-111546000D02*
X135509380Y-111546000D01*
X135652238Y-111641238D01*
X135747476Y-111736476D01*
X135795095Y-111831714D01*
G04 #@! TO.C,R29*
X134993142Y-119197380D02*
X134659809Y-118721190D01*
X134421714Y-119197380D02*
X134421714Y-118197380D01*
X134802666Y-118197380D01*
X134897904Y-118245000D01*
X134945523Y-118292619D01*
X134993142Y-118387857D01*
X134993142Y-118530714D01*
X134945523Y-118625952D01*
X134897904Y-118673571D01*
X134802666Y-118721190D01*
X134421714Y-118721190D01*
X135374095Y-118292619D02*
X135421714Y-118245000D01*
X135516952Y-118197380D01*
X135755047Y-118197380D01*
X135850285Y-118245000D01*
X135897904Y-118292619D01*
X135945523Y-118387857D01*
X135945523Y-118483095D01*
X135897904Y-118625952D01*
X135326476Y-119197380D01*
X135945523Y-119197380D01*
X136421714Y-119197380D02*
X136612190Y-119197380D01*
X136707428Y-119149761D01*
X136755047Y-119102142D01*
X136850285Y-118959285D01*
X136897904Y-118768809D01*
X136897904Y-118387857D01*
X136850285Y-118292619D01*
X136802666Y-118245000D01*
X136707428Y-118197380D01*
X136516952Y-118197380D01*
X136421714Y-118245000D01*
X136374095Y-118292619D01*
X136326476Y-118387857D01*
X136326476Y-118625952D01*
X136374095Y-118721190D01*
X136421714Y-118768809D01*
X136516952Y-118816428D01*
X136707428Y-118816428D01*
X136802666Y-118768809D01*
X136850285Y-118721190D01*
X136897904Y-118625952D01*
G04 #@! TO.C,R30*
X134993142Y-117165380D02*
X134659809Y-116689190D01*
X134421714Y-117165380D02*
X134421714Y-116165380D01*
X134802666Y-116165380D01*
X134897904Y-116213000D01*
X134945523Y-116260619D01*
X134993142Y-116355857D01*
X134993142Y-116498714D01*
X134945523Y-116593952D01*
X134897904Y-116641571D01*
X134802666Y-116689190D01*
X134421714Y-116689190D01*
X135326476Y-116165380D02*
X135945523Y-116165380D01*
X135612190Y-116546333D01*
X135755047Y-116546333D01*
X135850285Y-116593952D01*
X135897904Y-116641571D01*
X135945523Y-116736809D01*
X135945523Y-116974904D01*
X135897904Y-117070142D01*
X135850285Y-117117761D01*
X135755047Y-117165380D01*
X135469333Y-117165380D01*
X135374095Y-117117761D01*
X135326476Y-117070142D01*
X136564571Y-116165380D02*
X136659809Y-116165380D01*
X136755047Y-116213000D01*
X136802666Y-116260619D01*
X136850285Y-116355857D01*
X136897904Y-116546333D01*
X136897904Y-116784428D01*
X136850285Y-116974904D01*
X136802666Y-117070142D01*
X136755047Y-117117761D01*
X136659809Y-117165380D01*
X136564571Y-117165380D01*
X136469333Y-117117761D01*
X136421714Y-117070142D01*
X136374095Y-116974904D01*
X136326476Y-116784428D01*
X136326476Y-116546333D01*
X136374095Y-116355857D01*
X136421714Y-116260619D01*
X136469333Y-116213000D01*
X136564571Y-116165380D01*
G04 #@! TO.C,R31*
X131310142Y-114498380D02*
X130976809Y-114022190D01*
X130738714Y-114498380D02*
X130738714Y-113498380D01*
X131119666Y-113498380D01*
X131214904Y-113546000D01*
X131262523Y-113593619D01*
X131310142Y-113688857D01*
X131310142Y-113831714D01*
X131262523Y-113926952D01*
X131214904Y-113974571D01*
X131119666Y-114022190D01*
X130738714Y-114022190D01*
X131643476Y-113498380D02*
X132262523Y-113498380D01*
X131929190Y-113879333D01*
X132072047Y-113879333D01*
X132167285Y-113926952D01*
X132214904Y-113974571D01*
X132262523Y-114069809D01*
X132262523Y-114307904D01*
X132214904Y-114403142D01*
X132167285Y-114450761D01*
X132072047Y-114498380D01*
X131786333Y-114498380D01*
X131691095Y-114450761D01*
X131643476Y-114403142D01*
X133214904Y-114498380D02*
X132643476Y-114498380D01*
X132929190Y-114498380D02*
X132929190Y-113498380D01*
X132833952Y-113641238D01*
X132738714Y-113736476D01*
X132643476Y-113784095D01*
G04 #@! TO.C,R32*
X146357142Y-118180380D02*
X146023809Y-117704190D01*
X145785714Y-118180380D02*
X145785714Y-117180380D01*
X146166666Y-117180380D01*
X146261904Y-117228000D01*
X146309523Y-117275619D01*
X146357142Y-117370857D01*
X146357142Y-117513714D01*
X146309523Y-117608952D01*
X146261904Y-117656571D01*
X146166666Y-117704190D01*
X145785714Y-117704190D01*
X146690476Y-117180380D02*
X147309523Y-117180380D01*
X146976190Y-117561333D01*
X147119047Y-117561333D01*
X147214285Y-117608952D01*
X147261904Y-117656571D01*
X147309523Y-117751809D01*
X147309523Y-117989904D01*
X147261904Y-118085142D01*
X147214285Y-118132761D01*
X147119047Y-118180380D01*
X146833333Y-118180380D01*
X146738095Y-118132761D01*
X146690476Y-118085142D01*
X147690476Y-117275619D02*
X147738095Y-117228000D01*
X147833333Y-117180380D01*
X148071428Y-117180380D01*
X148166666Y-117228000D01*
X148214285Y-117275619D01*
X148261904Y-117370857D01*
X148261904Y-117466095D01*
X148214285Y-117608952D01*
X147642857Y-118180380D01*
X148261904Y-118180380D01*
G04 #@! TO.C,U5*
X144907095Y-113625380D02*
X144907095Y-114434904D01*
X144954714Y-114530142D01*
X145002333Y-114577761D01*
X145097571Y-114625380D01*
X145288047Y-114625380D01*
X145383285Y-114577761D01*
X145430904Y-114530142D01*
X145478523Y-114434904D01*
X145478523Y-113625380D01*
X146430904Y-113625380D02*
X145954714Y-113625380D01*
X145907095Y-114101571D01*
X145954714Y-114053952D01*
X146049952Y-114006333D01*
X146288047Y-114006333D01*
X146383285Y-114053952D01*
X146430904Y-114101571D01*
X146478523Y-114196809D01*
X146478523Y-114434904D01*
X146430904Y-114530142D01*
X146383285Y-114577761D01*
X146288047Y-114625380D01*
X146049952Y-114625380D01*
X145954714Y-114577761D01*
X145907095Y-114530142D01*
G04 #@! TO.C,C19*
X145621142Y-84986857D02*
X145668761Y-85034476D01*
X145716380Y-85177333D01*
X145716380Y-85272571D01*
X145668761Y-85415428D01*
X145573523Y-85510666D01*
X145478285Y-85558285D01*
X145287809Y-85605904D01*
X145144952Y-85605904D01*
X144954476Y-85558285D01*
X144859238Y-85510666D01*
X144764000Y-85415428D01*
X144716380Y-85272571D01*
X144716380Y-85177333D01*
X144764000Y-85034476D01*
X144811619Y-84986857D01*
X145716380Y-84034476D02*
X145716380Y-84605904D01*
X145716380Y-84320190D02*
X144716380Y-84320190D01*
X144859238Y-84415428D01*
X144954476Y-84510666D01*
X145002095Y-84605904D01*
X145716380Y-83558285D02*
X145716380Y-83367809D01*
X145668761Y-83272571D01*
X145621142Y-83224952D01*
X145478285Y-83129714D01*
X145287809Y-83082095D01*
X144906857Y-83082095D01*
X144811619Y-83129714D01*
X144764000Y-83177333D01*
X144716380Y-83272571D01*
X144716380Y-83463047D01*
X144764000Y-83558285D01*
X144811619Y-83605904D01*
X144906857Y-83653523D01*
X145144952Y-83653523D01*
X145240190Y-83605904D01*
X145287809Y-83558285D01*
X145335428Y-83463047D01*
X145335428Y-83272571D01*
X145287809Y-83177333D01*
X145240190Y-83129714D01*
X145144952Y-83082095D01*
G04 #@! TO.C,C20*
X123817142Y-85066142D02*
X123769523Y-85113761D01*
X123626666Y-85161380D01*
X123531428Y-85161380D01*
X123388571Y-85113761D01*
X123293333Y-85018523D01*
X123245714Y-84923285D01*
X123198095Y-84732809D01*
X123198095Y-84589952D01*
X123245714Y-84399476D01*
X123293333Y-84304238D01*
X123388571Y-84209000D01*
X123531428Y-84161380D01*
X123626666Y-84161380D01*
X123769523Y-84209000D01*
X123817142Y-84256619D01*
X124198095Y-84256619D02*
X124245714Y-84209000D01*
X124340952Y-84161380D01*
X124579047Y-84161380D01*
X124674285Y-84209000D01*
X124721904Y-84256619D01*
X124769523Y-84351857D01*
X124769523Y-84447095D01*
X124721904Y-84589952D01*
X124150476Y-85161380D01*
X124769523Y-85161380D01*
X125388571Y-84161380D02*
X125483809Y-84161380D01*
X125579047Y-84209000D01*
X125626666Y-84256619D01*
X125674285Y-84351857D01*
X125721904Y-84542333D01*
X125721904Y-84780428D01*
X125674285Y-84970904D01*
X125626666Y-85066142D01*
X125579047Y-85113761D01*
X125483809Y-85161380D01*
X125388571Y-85161380D01*
X125293333Y-85113761D01*
X125245714Y-85066142D01*
X125198095Y-84970904D01*
X125150476Y-84780428D01*
X125150476Y-84542333D01*
X125198095Y-84351857D01*
X125245714Y-84256619D01*
X125293333Y-84209000D01*
X125388571Y-84161380D01*
G04 #@! TO.C,C21*
X143756142Y-97131142D02*
X143708523Y-97178761D01*
X143565666Y-97226380D01*
X143470428Y-97226380D01*
X143327571Y-97178761D01*
X143232333Y-97083523D01*
X143184714Y-96988285D01*
X143137095Y-96797809D01*
X143137095Y-96654952D01*
X143184714Y-96464476D01*
X143232333Y-96369238D01*
X143327571Y-96274000D01*
X143470428Y-96226380D01*
X143565666Y-96226380D01*
X143708523Y-96274000D01*
X143756142Y-96321619D01*
X144137095Y-96321619D02*
X144184714Y-96274000D01*
X144279952Y-96226380D01*
X144518047Y-96226380D01*
X144613285Y-96274000D01*
X144660904Y-96321619D01*
X144708523Y-96416857D01*
X144708523Y-96512095D01*
X144660904Y-96654952D01*
X144089476Y-97226380D01*
X144708523Y-97226380D01*
X145660904Y-97226380D02*
X145089476Y-97226380D01*
X145375190Y-97226380D02*
X145375190Y-96226380D01*
X145279952Y-96369238D01*
X145184714Y-96464476D01*
X145089476Y-96512095D01*
G04 #@! TO.C,C22*
X123563142Y-99417142D02*
X123515523Y-99464761D01*
X123372666Y-99512380D01*
X123277428Y-99512380D01*
X123134571Y-99464761D01*
X123039333Y-99369523D01*
X122991714Y-99274285D01*
X122944095Y-99083809D01*
X122944095Y-98940952D01*
X122991714Y-98750476D01*
X123039333Y-98655238D01*
X123134571Y-98560000D01*
X123277428Y-98512380D01*
X123372666Y-98512380D01*
X123515523Y-98560000D01*
X123563142Y-98607619D01*
X123944095Y-98607619D02*
X123991714Y-98560000D01*
X124086952Y-98512380D01*
X124325047Y-98512380D01*
X124420285Y-98560000D01*
X124467904Y-98607619D01*
X124515523Y-98702857D01*
X124515523Y-98798095D01*
X124467904Y-98940952D01*
X123896476Y-99512380D01*
X124515523Y-99512380D01*
X124896476Y-98607619D02*
X124944095Y-98560000D01*
X125039333Y-98512380D01*
X125277428Y-98512380D01*
X125372666Y-98560000D01*
X125420285Y-98607619D01*
X125467904Y-98702857D01*
X125467904Y-98798095D01*
X125420285Y-98940952D01*
X124848857Y-99512380D01*
X125467904Y-99512380D01*
G04 #@! TO.C,C23*
X107196142Y-108077142D02*
X107148523Y-108124761D01*
X107005666Y-108172380D01*
X106910428Y-108172380D01*
X106767571Y-108124761D01*
X106672333Y-108029523D01*
X106624714Y-107934285D01*
X106577095Y-107743809D01*
X106577095Y-107600952D01*
X106624714Y-107410476D01*
X106672333Y-107315238D01*
X106767571Y-107220000D01*
X106910428Y-107172380D01*
X107005666Y-107172380D01*
X107148523Y-107220000D01*
X107196142Y-107267619D01*
X107577095Y-107267619D02*
X107624714Y-107220000D01*
X107719952Y-107172380D01*
X107958047Y-107172380D01*
X108053285Y-107220000D01*
X108100904Y-107267619D01*
X108148523Y-107362857D01*
X108148523Y-107458095D01*
X108100904Y-107600952D01*
X107529476Y-108172380D01*
X108148523Y-108172380D01*
X108481857Y-107172380D02*
X109100904Y-107172380D01*
X108767571Y-107553333D01*
X108910428Y-107553333D01*
X109005666Y-107600952D01*
X109053285Y-107648571D01*
X109100904Y-107743809D01*
X109100904Y-107981904D01*
X109053285Y-108077142D01*
X109005666Y-108124761D01*
X108910428Y-108172380D01*
X108624714Y-108172380D01*
X108529476Y-108124761D01*
X108481857Y-108077142D01*
G04 #@! TO.C,C24*
X121237142Y-75937857D02*
X121284761Y-75985476D01*
X121332380Y-76128333D01*
X121332380Y-76223571D01*
X121284761Y-76366428D01*
X121189523Y-76461666D01*
X121094285Y-76509285D01*
X120903809Y-76556904D01*
X120760952Y-76556904D01*
X120570476Y-76509285D01*
X120475238Y-76461666D01*
X120380000Y-76366428D01*
X120332380Y-76223571D01*
X120332380Y-76128333D01*
X120380000Y-75985476D01*
X120427619Y-75937857D01*
X120427619Y-75556904D02*
X120380000Y-75509285D01*
X120332380Y-75414047D01*
X120332380Y-75175952D01*
X120380000Y-75080714D01*
X120427619Y-75033095D01*
X120522857Y-74985476D01*
X120618095Y-74985476D01*
X120760952Y-75033095D01*
X121332380Y-75604523D01*
X121332380Y-74985476D01*
X120665714Y-74128333D02*
X121332380Y-74128333D01*
X120284761Y-74366428D02*
X120999047Y-74604523D01*
X120999047Y-73985476D01*
G04 #@! TO.C,C25*
X146304142Y-112545857D02*
X146351761Y-112593476D01*
X146399380Y-112736333D01*
X146399380Y-112831571D01*
X146351761Y-112974428D01*
X146256523Y-113069666D01*
X146161285Y-113117285D01*
X145970809Y-113164904D01*
X145827952Y-113164904D01*
X145637476Y-113117285D01*
X145542238Y-113069666D01*
X145447000Y-112974428D01*
X145399380Y-112831571D01*
X145399380Y-112736333D01*
X145447000Y-112593476D01*
X145494619Y-112545857D01*
X145494619Y-112164904D02*
X145447000Y-112117285D01*
X145399380Y-112022047D01*
X145399380Y-111783952D01*
X145447000Y-111688714D01*
X145494619Y-111641095D01*
X145589857Y-111593476D01*
X145685095Y-111593476D01*
X145827952Y-111641095D01*
X146399380Y-112212523D01*
X146399380Y-111593476D01*
X145399380Y-110688714D02*
X145399380Y-111164904D01*
X145875571Y-111212523D01*
X145827952Y-111164904D01*
X145780333Y-111069666D01*
X145780333Y-110831571D01*
X145827952Y-110736333D01*
X145875571Y-110688714D01*
X145970809Y-110641095D01*
X146208904Y-110641095D01*
X146304142Y-110688714D01*
X146351761Y-110736333D01*
X146399380Y-110831571D01*
X146399380Y-111069666D01*
X146351761Y-111164904D01*
X146304142Y-111212523D01*
G04 #@! TO.C,J2*
X110283666Y-109942380D02*
X110283666Y-110656666D01*
X110236047Y-110799523D01*
X110140809Y-110894761D01*
X109997952Y-110942380D01*
X109902714Y-110942380D01*
X110712238Y-110037619D02*
X110759857Y-109990000D01*
X110855095Y-109942380D01*
X111093190Y-109942380D01*
X111188428Y-109990000D01*
X111236047Y-110037619D01*
X111283666Y-110132857D01*
X111283666Y-110228095D01*
X111236047Y-110370952D01*
X110664619Y-110942380D01*
X111283666Y-110942380D01*
G04 #@! TO.C,J3*
X116502380Y-71453333D02*
X117216666Y-71453333D01*
X117359523Y-71500952D01*
X117454761Y-71596190D01*
X117502380Y-71739047D01*
X117502380Y-71834285D01*
X116502380Y-71072380D02*
X116502380Y-70453333D01*
X116883333Y-70786666D01*
X116883333Y-70643809D01*
X116930952Y-70548571D01*
X116978571Y-70500952D01*
X117073809Y-70453333D01*
X117311904Y-70453333D01*
X117407142Y-70500952D01*
X117454761Y-70548571D01*
X117502380Y-70643809D01*
X117502380Y-70929523D01*
X117454761Y-71024761D01*
X117407142Y-71072380D01*
G04 #@! TO.C,J4*
X116506666Y-76033380D02*
X116506666Y-76747666D01*
X116459047Y-76890523D01*
X116363809Y-76985761D01*
X116220952Y-77033380D01*
X116125714Y-77033380D01*
X117411428Y-76366714D02*
X117411428Y-77033380D01*
X117173333Y-75985761D02*
X116935238Y-76700047D01*
X117554285Y-76700047D01*
G04 #@! TO.C,R33*
X123007380Y-81922857D02*
X122531190Y-82256190D01*
X123007380Y-82494285D02*
X122007380Y-82494285D01*
X122007380Y-82113333D01*
X122055000Y-82018095D01*
X122102619Y-81970476D01*
X122197857Y-81922857D01*
X122340714Y-81922857D01*
X122435952Y-81970476D01*
X122483571Y-82018095D01*
X122531190Y-82113333D01*
X122531190Y-82494285D01*
X122007380Y-81589523D02*
X122007380Y-80970476D01*
X122388333Y-81303809D01*
X122388333Y-81160952D01*
X122435952Y-81065714D01*
X122483571Y-81018095D01*
X122578809Y-80970476D01*
X122816904Y-80970476D01*
X122912142Y-81018095D01*
X122959761Y-81065714D01*
X123007380Y-81160952D01*
X123007380Y-81446666D01*
X122959761Y-81541904D01*
X122912142Y-81589523D01*
X122007380Y-80637142D02*
X122007380Y-80018095D01*
X122388333Y-80351428D01*
X122388333Y-80208571D01*
X122435952Y-80113333D01*
X122483571Y-80065714D01*
X122578809Y-80018095D01*
X122816904Y-80018095D01*
X122912142Y-80065714D01*
X122959761Y-80113333D01*
X123007380Y-80208571D01*
X123007380Y-80494285D01*
X122959761Y-80589523D01*
X122912142Y-80637142D01*
G04 #@! TO.C,R34*
X125862380Y-81922857D02*
X125386190Y-82256190D01*
X125862380Y-82494285D02*
X124862380Y-82494285D01*
X124862380Y-82113333D01*
X124910000Y-82018095D01*
X124957619Y-81970476D01*
X125052857Y-81922857D01*
X125195714Y-81922857D01*
X125290952Y-81970476D01*
X125338571Y-82018095D01*
X125386190Y-82113333D01*
X125386190Y-82494285D01*
X124862380Y-81589523D02*
X124862380Y-80970476D01*
X125243333Y-81303809D01*
X125243333Y-81160952D01*
X125290952Y-81065714D01*
X125338571Y-81018095D01*
X125433809Y-80970476D01*
X125671904Y-80970476D01*
X125767142Y-81018095D01*
X125814761Y-81065714D01*
X125862380Y-81160952D01*
X125862380Y-81446666D01*
X125814761Y-81541904D01*
X125767142Y-81589523D01*
X125195714Y-80113333D02*
X125862380Y-80113333D01*
X124814761Y-80351428D02*
X125529047Y-80589523D01*
X125529047Y-79970476D01*
G04 #@! TO.C,R35*
X129042380Y-81922857D02*
X128566190Y-82256190D01*
X129042380Y-82494285D02*
X128042380Y-82494285D01*
X128042380Y-82113333D01*
X128090000Y-82018095D01*
X128137619Y-81970476D01*
X128232857Y-81922857D01*
X128375714Y-81922857D01*
X128470952Y-81970476D01*
X128518571Y-82018095D01*
X128566190Y-82113333D01*
X128566190Y-82494285D01*
X128042380Y-81589523D02*
X128042380Y-80970476D01*
X128423333Y-81303809D01*
X128423333Y-81160952D01*
X128470952Y-81065714D01*
X128518571Y-81018095D01*
X128613809Y-80970476D01*
X128851904Y-80970476D01*
X128947142Y-81018095D01*
X128994761Y-81065714D01*
X129042380Y-81160952D01*
X129042380Y-81446666D01*
X128994761Y-81541904D01*
X128947142Y-81589523D01*
X128042380Y-80065714D02*
X128042380Y-80541904D01*
X128518571Y-80589523D01*
X128470952Y-80541904D01*
X128423333Y-80446666D01*
X128423333Y-80208571D01*
X128470952Y-80113333D01*
X128518571Y-80065714D01*
X128613809Y-80018095D01*
X128851904Y-80018095D01*
X128947142Y-80065714D01*
X128994761Y-80113333D01*
X129042380Y-80208571D01*
X129042380Y-80446666D01*
X128994761Y-80541904D01*
X128947142Y-80589523D01*
G04 #@! TO.C,R36*
D12*
X121598571Y-73886190D02*
X121431904Y-73648095D01*
X121312857Y-73886190D02*
X121312857Y-73386190D01*
X121503333Y-73386190D01*
X121550952Y-73410000D01*
X121574761Y-73433809D01*
X121598571Y-73481428D01*
X121598571Y-73552857D01*
X121574761Y-73600476D01*
X121550952Y-73624285D01*
X121503333Y-73648095D01*
X121312857Y-73648095D01*
X121765238Y-73386190D02*
X122074761Y-73386190D01*
X121908095Y-73576666D01*
X121979523Y-73576666D01*
X122027142Y-73600476D01*
X122050952Y-73624285D01*
X122074761Y-73671904D01*
X122074761Y-73790952D01*
X122050952Y-73838571D01*
X122027142Y-73862380D01*
X121979523Y-73886190D01*
X121836666Y-73886190D01*
X121789047Y-73862380D01*
X121765238Y-73838571D01*
X122503333Y-73386190D02*
X122408095Y-73386190D01*
X122360476Y-73410000D01*
X122336666Y-73433809D01*
X122289047Y-73505238D01*
X122265238Y-73600476D01*
X122265238Y-73790952D01*
X122289047Y-73838571D01*
X122312857Y-73862380D01*
X122360476Y-73886190D01*
X122455714Y-73886190D01*
X122503333Y-73862380D01*
X122527142Y-73838571D01*
X122550952Y-73790952D01*
X122550952Y-73671904D01*
X122527142Y-73624285D01*
X122503333Y-73600476D01*
X122455714Y-73576666D01*
X122360476Y-73576666D01*
X122312857Y-73600476D01*
X122289047Y-73624285D01*
X122265238Y-73671904D01*
G04 #@! TO.C,R37*
X124138571Y-73886190D02*
X123971904Y-73648095D01*
X123852857Y-73886190D02*
X123852857Y-73386190D01*
X124043333Y-73386190D01*
X124090952Y-73410000D01*
X124114761Y-73433809D01*
X124138571Y-73481428D01*
X124138571Y-73552857D01*
X124114761Y-73600476D01*
X124090952Y-73624285D01*
X124043333Y-73648095D01*
X123852857Y-73648095D01*
X124305238Y-73386190D02*
X124614761Y-73386190D01*
X124448095Y-73576666D01*
X124519523Y-73576666D01*
X124567142Y-73600476D01*
X124590952Y-73624285D01*
X124614761Y-73671904D01*
X124614761Y-73790952D01*
X124590952Y-73838571D01*
X124567142Y-73862380D01*
X124519523Y-73886190D01*
X124376666Y-73886190D01*
X124329047Y-73862380D01*
X124305238Y-73838571D01*
X124781428Y-73386190D02*
X125114761Y-73386190D01*
X124900476Y-73886190D01*
G04 #@! TO.C,R38*
X126678571Y-73886190D02*
X126511904Y-73648095D01*
X126392857Y-73886190D02*
X126392857Y-73386190D01*
X126583333Y-73386190D01*
X126630952Y-73410000D01*
X126654761Y-73433809D01*
X126678571Y-73481428D01*
X126678571Y-73552857D01*
X126654761Y-73600476D01*
X126630952Y-73624285D01*
X126583333Y-73648095D01*
X126392857Y-73648095D01*
X126845238Y-73386190D02*
X127154761Y-73386190D01*
X126988095Y-73576666D01*
X127059523Y-73576666D01*
X127107142Y-73600476D01*
X127130952Y-73624285D01*
X127154761Y-73671904D01*
X127154761Y-73790952D01*
X127130952Y-73838571D01*
X127107142Y-73862380D01*
X127059523Y-73886190D01*
X126916666Y-73886190D01*
X126869047Y-73862380D01*
X126845238Y-73838571D01*
X127440476Y-73600476D02*
X127392857Y-73576666D01*
X127369047Y-73552857D01*
X127345238Y-73505238D01*
X127345238Y-73481428D01*
X127369047Y-73433809D01*
X127392857Y-73410000D01*
X127440476Y-73386190D01*
X127535714Y-73386190D01*
X127583333Y-73410000D01*
X127607142Y-73433809D01*
X127630952Y-73481428D01*
X127630952Y-73505238D01*
X127607142Y-73552857D01*
X127583333Y-73576666D01*
X127535714Y-73600476D01*
X127440476Y-73600476D01*
X127392857Y-73624285D01*
X127369047Y-73648095D01*
X127345238Y-73695714D01*
X127345238Y-73790952D01*
X127369047Y-73838571D01*
X127392857Y-73862380D01*
X127440476Y-73886190D01*
X127535714Y-73886190D01*
X127583333Y-73862380D01*
X127607142Y-73838571D01*
X127630952Y-73790952D01*
X127630952Y-73695714D01*
X127607142Y-73648095D01*
X127583333Y-73624285D01*
X127535714Y-73600476D01*
G04 #@! TO.C,R39*
X129218571Y-73886190D02*
X129051904Y-73648095D01*
X128932857Y-73886190D02*
X128932857Y-73386190D01*
X129123333Y-73386190D01*
X129170952Y-73410000D01*
X129194761Y-73433809D01*
X129218571Y-73481428D01*
X129218571Y-73552857D01*
X129194761Y-73600476D01*
X129170952Y-73624285D01*
X129123333Y-73648095D01*
X128932857Y-73648095D01*
X129385238Y-73386190D02*
X129694761Y-73386190D01*
X129528095Y-73576666D01*
X129599523Y-73576666D01*
X129647142Y-73600476D01*
X129670952Y-73624285D01*
X129694761Y-73671904D01*
X129694761Y-73790952D01*
X129670952Y-73838571D01*
X129647142Y-73862380D01*
X129599523Y-73886190D01*
X129456666Y-73886190D01*
X129409047Y-73862380D01*
X129385238Y-73838571D01*
X129932857Y-73886190D02*
X130028095Y-73886190D01*
X130075714Y-73862380D01*
X130099523Y-73838571D01*
X130147142Y-73767142D01*
X130170952Y-73671904D01*
X130170952Y-73481428D01*
X130147142Y-73433809D01*
X130123333Y-73410000D01*
X130075714Y-73386190D01*
X129980476Y-73386190D01*
X129932857Y-73410000D01*
X129909047Y-73433809D01*
X129885238Y-73481428D01*
X129885238Y-73600476D01*
X129909047Y-73648095D01*
X129932857Y-73671904D01*
X129980476Y-73695714D01*
X130075714Y-73695714D01*
X130123333Y-73671904D01*
X130147142Y-73648095D01*
X130170952Y-73600476D01*
G04 #@! TO.C,R40*
X131758571Y-73886190D02*
X131591904Y-73648095D01*
X131472857Y-73886190D02*
X131472857Y-73386190D01*
X131663333Y-73386190D01*
X131710952Y-73410000D01*
X131734761Y-73433809D01*
X131758571Y-73481428D01*
X131758571Y-73552857D01*
X131734761Y-73600476D01*
X131710952Y-73624285D01*
X131663333Y-73648095D01*
X131472857Y-73648095D01*
X132187142Y-73552857D02*
X132187142Y-73886190D01*
X132068095Y-73362380D02*
X131949047Y-73719523D01*
X132258571Y-73719523D01*
X132544285Y-73386190D02*
X132591904Y-73386190D01*
X132639523Y-73410000D01*
X132663333Y-73433809D01*
X132687142Y-73481428D01*
X132710952Y-73576666D01*
X132710952Y-73695714D01*
X132687142Y-73790952D01*
X132663333Y-73838571D01*
X132639523Y-73862380D01*
X132591904Y-73886190D01*
X132544285Y-73886190D01*
X132496666Y-73862380D01*
X132472857Y-73838571D01*
X132449047Y-73790952D01*
X132425238Y-73695714D01*
X132425238Y-73576666D01*
X132449047Y-73481428D01*
X132472857Y-73433809D01*
X132496666Y-73410000D01*
X132544285Y-73386190D01*
G04 #@! TO.C,R41*
X134298571Y-73886190D02*
X134131904Y-73648095D01*
X134012857Y-73886190D02*
X134012857Y-73386190D01*
X134203333Y-73386190D01*
X134250952Y-73410000D01*
X134274761Y-73433809D01*
X134298571Y-73481428D01*
X134298571Y-73552857D01*
X134274761Y-73600476D01*
X134250952Y-73624285D01*
X134203333Y-73648095D01*
X134012857Y-73648095D01*
X134727142Y-73552857D02*
X134727142Y-73886190D01*
X134608095Y-73362380D02*
X134489047Y-73719523D01*
X134798571Y-73719523D01*
X135250952Y-73886190D02*
X134965238Y-73886190D01*
X135108095Y-73886190D02*
X135108095Y-73386190D01*
X135060476Y-73457619D01*
X135012857Y-73505238D01*
X134965238Y-73529047D01*
G04 #@! TO.C,J1*
D11*
X121586666Y-109942380D02*
X121586666Y-110656666D01*
X121539047Y-110799523D01*
X121443809Y-110894761D01*
X121300952Y-110942380D01*
X121205714Y-110942380D01*
X122586666Y-110942380D02*
X122015238Y-110942380D01*
X122300952Y-110942380D02*
X122300952Y-109942380D01*
X122205714Y-110085238D01*
X122110476Y-110180476D01*
X122015238Y-110228095D01*
G04 #@! TD*
M02*
