G04 #@! TF.GenerationSoftware,KiCad,Pcbnew,(5.0.0)*
G04 #@! TF.CreationDate,2020-04-28T19:31:03-04:00*
G04 #@! TF.ProjectId,Kyle's Amp,4B796C65277320416D702E6B69636164,rev?*
G04 #@! TF.SameCoordinates,Original*
G04 #@! TF.FileFunction,Copper,L2,Bot,Signal*
G04 #@! TF.FilePolarity,Positive*
%FSLAX46Y46*%
G04 Gerber Fmt 4.6, Leading zero omitted, Abs format (unit mm)*
G04 Created by KiCad (PCBNEW (5.0.0)) date 04/28/20 19:31:03*
%MOMM*%
%LPD*%
G01*
G04 APERTURE LIST*
G04 #@! TA.AperFunction,ComponentPad*
%ADD10R,3.000000X3.000000*%
G04 #@! TD*
G04 #@! TA.AperFunction,ComponentPad*
%ADD11C,3.000000*%
G04 #@! TD*
G04 #@! TA.AperFunction,ComponentPad*
%ADD12O,1.700000X1.700000*%
G04 #@! TD*
G04 #@! TA.AperFunction,ComponentPad*
%ADD13R,1.700000X1.700000*%
G04 #@! TD*
G04 #@! TA.AperFunction,ViaPad*
%ADD14C,0.800000*%
G04 #@! TD*
G04 #@! TA.AperFunction,Conductor*
%ADD15C,1.000000*%
G04 #@! TD*
G04 #@! TA.AperFunction,Conductor*
%ADD16C,0.250000*%
G04 #@! TD*
G04 #@! TA.AperFunction,Conductor*
%ADD17C,0.254000*%
G04 #@! TD*
G04 APERTURE END LIST*
D10*
G04 #@! TO.P,J2,1*
G04 #@! TO.N,VCC*
X108077000Y-115570000D03*
D11*
G04 #@! TO.P,J2,2*
G04 #@! TO.N,GND*
X113157000Y-115570000D03*
G04 #@! TD*
D12*
G04 #@! TO.P,J3,8*
G04 #@! TO.N,GND*
X137160000Y-71120000D03*
G04 #@! TO.P,J3,7*
G04 #@! TO.N,Net-(J3-Pad7)*
X134620000Y-71120000D03*
G04 #@! TO.P,J3,6*
G04 #@! TO.N,Net-(J3-Pad6)*
X132080000Y-71120000D03*
G04 #@! TO.P,J3,5*
G04 #@! TO.N,Net-(J3-Pad5)*
X129540000Y-71120000D03*
G04 #@! TO.P,J3,4*
G04 #@! TO.N,Net-(J3-Pad4)*
X127000000Y-71120000D03*
G04 #@! TO.P,J3,3*
G04 #@! TO.N,Net-(J3-Pad3)*
X124460000Y-71120000D03*
G04 #@! TO.P,J3,2*
G04 #@! TO.N,Net-(J3-Pad2)*
X121920000Y-71120000D03*
D13*
G04 #@! TO.P,J3,1*
G04 #@! TO.N,VCC*
X119380000Y-71120000D03*
G04 #@! TD*
D11*
G04 #@! TO.P,J4,2*
G04 #@! TO.N,GND*
X108204000Y-73660000D03*
D10*
G04 #@! TO.P,J4,1*
G04 #@! TO.N,INPUT1*
X113284000Y-73660000D03*
G04 #@! TD*
D11*
G04 #@! TO.P,J1,2*
G04 #@! TO.N,GND*
X124460000Y-115570000D03*
D10*
G04 #@! TO.P,J1,1*
G04 #@! TO.N,GPIO*
X119380000Y-115570000D03*
G04 #@! TD*
D14*
G04 #@! TO.N,VCC*
X137160000Y-97790000D03*
X142367000Y-99695000D03*
X119380000Y-99441000D03*
X114046000Y-97663000D03*
X118999000Y-85344000D03*
X113538000Y-83693000D03*
X136906000Y-83820000D03*
X141986000Y-85471000D03*
X136017000Y-118745000D03*
X146177000Y-113919000D03*
X114046000Y-92710000D03*
G04 #@! TO.N,GND*
X113548000Y-86614000D03*
X137033000Y-86741000D03*
X137287000Y-100711000D03*
X114046000Y-100584000D03*
X127000000Y-97790000D03*
X129540000Y-92710000D03*
X134620000Y-93980000D03*
X125730000Y-83820000D03*
X142875000Y-117602000D03*
X127254000Y-102362000D03*
X115824000Y-93726000D03*
X126238000Y-87757000D03*
X121920000Y-81280000D03*
X129540000Y-83820000D03*
X146050000Y-92710000D03*
X146050000Y-83820000D03*
X120650000Y-91440000D03*
X134620000Y-91440000D03*
G04 #@! TO.N,INPUT3*
X127143000Y-80137000D03*
X127254000Y-83439000D03*
G04 #@! TO.N,ENVOLPE*
X147447000Y-108331000D03*
X145669000Y-78232000D03*
G04 #@! TD*
D15*
G04 #@! TO.N,VCC*
X117348000Y-83693000D02*
X118999000Y-85344000D01*
X113538000Y-83693000D02*
X117348000Y-83693000D01*
X117602000Y-97663000D02*
X119380000Y-99441000D01*
X114046000Y-97663000D02*
X117602000Y-97663000D01*
X135509000Y-99441000D02*
X137160000Y-97790000D01*
X119564685Y-85344000D02*
X118999000Y-85344000D01*
X134816315Y-85344000D02*
X119564685Y-85344000D01*
X136340315Y-83820000D02*
X134816315Y-85344000D01*
X136906000Y-83820000D02*
X136340315Y-83820000D01*
X140335000Y-83820000D02*
X141986000Y-85471000D01*
X136906000Y-83820000D02*
X140335000Y-83820000D01*
X139065000Y-99695000D02*
X137160000Y-97790000D01*
X142367000Y-99695000D02*
X139065000Y-99695000D01*
X136017000Y-102235000D02*
X133223000Y-99441000D01*
X136017000Y-118745000D02*
X136017000Y-102235000D01*
X119380000Y-99441000D02*
X133223000Y-99441000D01*
X137160000Y-97790000D02*
X137160000Y-89408000D01*
X134816315Y-87064315D02*
X134816315Y-85344000D01*
X137160000Y-89408000D02*
X134816315Y-87064315D01*
X119380000Y-99441000D02*
X119380000Y-98171000D01*
X130486685Y-87064315D02*
X134816315Y-87064315D01*
X119380000Y-98171000D02*
X130486685Y-87064315D01*
X132334000Y-99441000D02*
X118618000Y-85725000D01*
X134874000Y-99441000D02*
X132334000Y-99441000D01*
X118618000Y-85725000D02*
X114046000Y-90297000D01*
X118999000Y-85344000D02*
X118618000Y-85725000D01*
X134874000Y-99441000D02*
X135509000Y-99441000D01*
X133223000Y-99441000D02*
X134874000Y-99441000D01*
X136017000Y-118745000D02*
X136017000Y-115443000D01*
X136017000Y-115443000D02*
X137541000Y-113919000D01*
X137541000Y-113919000D02*
X146177000Y-113919000D01*
D16*
X119380000Y-84963000D02*
X118999000Y-85344000D01*
X119380000Y-71120000D02*
X119380000Y-84963000D01*
D15*
X114046000Y-92710000D02*
X114046000Y-97663000D01*
X114046000Y-90297000D02*
X114046000Y-92710000D01*
D16*
G04 #@! TO.N,INPUT3*
X127143000Y-80137000D02*
X127143000Y-83328000D01*
X127143000Y-83328000D02*
X127254000Y-83439000D01*
G04 #@! TO.N,ENVOLPE*
X147846999Y-107931001D02*
X148227999Y-107931001D01*
X147447000Y-108331000D02*
X147846999Y-107931001D01*
X148227999Y-107931001D02*
X149352000Y-106807000D01*
X149352000Y-106807000D02*
X149352000Y-81915000D01*
X149352000Y-81915000D02*
X145669000Y-78232000D01*
G04 #@! TD*
D17*
G04 #@! TO.N,GND*
G36*
X150420001Y-121210000D02*
X104850000Y-121210000D01*
X104850000Y-114070000D01*
X105929560Y-114070000D01*
X105929560Y-117070000D01*
X105978843Y-117317765D01*
X106119191Y-117527809D01*
X106329235Y-117668157D01*
X106577000Y-117717440D01*
X109577000Y-117717440D01*
X109824765Y-117668157D01*
X110034809Y-117527809D01*
X110175157Y-117317765D01*
X110221661Y-117083970D01*
X111822635Y-117083970D01*
X111982418Y-117402739D01*
X112773187Y-117712723D01*
X113622387Y-117696497D01*
X114331582Y-117402739D01*
X114491365Y-117083970D01*
X113157000Y-115749605D01*
X111822635Y-117083970D01*
X110221661Y-117083970D01*
X110224440Y-117070000D01*
X110224440Y-115186187D01*
X111014277Y-115186187D01*
X111030503Y-116035387D01*
X111324261Y-116744582D01*
X111643030Y-116904365D01*
X112977395Y-115570000D01*
X113336605Y-115570000D01*
X114670970Y-116904365D01*
X114989739Y-116744582D01*
X115299723Y-115953813D01*
X115283497Y-115104613D01*
X114989739Y-114395418D01*
X114670970Y-114235635D01*
X113336605Y-115570000D01*
X112977395Y-115570000D01*
X111643030Y-114235635D01*
X111324261Y-114395418D01*
X111014277Y-115186187D01*
X110224440Y-115186187D01*
X110224440Y-114070000D01*
X110221662Y-114056030D01*
X111822635Y-114056030D01*
X113157000Y-115390395D01*
X114477395Y-114070000D01*
X117232560Y-114070000D01*
X117232560Y-117070000D01*
X117281843Y-117317765D01*
X117422191Y-117527809D01*
X117632235Y-117668157D01*
X117880000Y-117717440D01*
X120880000Y-117717440D01*
X121127765Y-117668157D01*
X121337809Y-117527809D01*
X121478157Y-117317765D01*
X121524661Y-117083970D01*
X123125635Y-117083970D01*
X123285418Y-117402739D01*
X124076187Y-117712723D01*
X124925387Y-117696497D01*
X125634582Y-117402739D01*
X125794365Y-117083970D01*
X124460000Y-115749605D01*
X123125635Y-117083970D01*
X121524661Y-117083970D01*
X121527440Y-117070000D01*
X121527440Y-115186187D01*
X122317277Y-115186187D01*
X122333503Y-116035387D01*
X122627261Y-116744582D01*
X122946030Y-116904365D01*
X124280395Y-115570000D01*
X124639605Y-115570000D01*
X125973970Y-116904365D01*
X126292739Y-116744582D01*
X126602723Y-115953813D01*
X126586497Y-115104613D01*
X126292739Y-114395418D01*
X125973970Y-114235635D01*
X124639605Y-115570000D01*
X124280395Y-115570000D01*
X122946030Y-114235635D01*
X122627261Y-114395418D01*
X122317277Y-115186187D01*
X121527440Y-115186187D01*
X121527440Y-114070000D01*
X121524662Y-114056030D01*
X123125635Y-114056030D01*
X124460000Y-115390395D01*
X125794365Y-114056030D01*
X125634582Y-113737261D01*
X124843813Y-113427277D01*
X123994613Y-113443503D01*
X123285418Y-113737261D01*
X123125635Y-114056030D01*
X121524662Y-114056030D01*
X121478157Y-113822235D01*
X121337809Y-113612191D01*
X121127765Y-113471843D01*
X120880000Y-113422560D01*
X117880000Y-113422560D01*
X117632235Y-113471843D01*
X117422191Y-113612191D01*
X117281843Y-113822235D01*
X117232560Y-114070000D01*
X114477395Y-114070000D01*
X114491365Y-114056030D01*
X114331582Y-113737261D01*
X113540813Y-113427277D01*
X112691613Y-113443503D01*
X111982418Y-113737261D01*
X111822635Y-114056030D01*
X110221662Y-114056030D01*
X110175157Y-113822235D01*
X110034809Y-113612191D01*
X109824765Y-113471843D01*
X109577000Y-113422560D01*
X106577000Y-113422560D01*
X106329235Y-113471843D01*
X106119191Y-113612191D01*
X105978843Y-113822235D01*
X105929560Y-114070000D01*
X104850000Y-114070000D01*
X104850000Y-83693000D01*
X112380765Y-83693000D01*
X112468854Y-84135855D01*
X112719711Y-84511289D01*
X113095145Y-84762146D01*
X113426217Y-84828000D01*
X116877869Y-84828000D01*
X117393868Y-85344000D01*
X113322482Y-89415387D01*
X113227711Y-89478711D01*
X112979054Y-89850854D01*
X112976854Y-89854146D01*
X112888765Y-90297000D01*
X112911000Y-90408783D01*
X112911001Y-92598213D01*
X112911000Y-92598218D01*
X112911001Y-97551212D01*
X112888765Y-97663000D01*
X112976854Y-98105855D01*
X113227711Y-98481289D01*
X113603145Y-98732146D01*
X113934217Y-98798000D01*
X114046000Y-98820235D01*
X114157783Y-98798000D01*
X117131869Y-98798000D01*
X118498389Y-100164521D01*
X118561710Y-100259288D01*
X118561711Y-100259289D01*
X118937145Y-100510146D01*
X119380000Y-100598235D01*
X119491783Y-100576000D01*
X132222216Y-100576000D01*
X132333999Y-100598235D01*
X132445782Y-100576000D01*
X132752869Y-100576000D01*
X134882001Y-102705133D01*
X134882000Y-115331216D01*
X134859765Y-115443000D01*
X134882000Y-115554784D01*
X134882000Y-118856782D01*
X134947854Y-119187854D01*
X135198711Y-119563289D01*
X135574145Y-119814146D01*
X136017000Y-119902235D01*
X136459854Y-119814146D01*
X136835289Y-119563289D01*
X137086146Y-119187855D01*
X137152000Y-118856783D01*
X137152000Y-115913131D01*
X138011133Y-115054000D01*
X146288783Y-115054000D01*
X146619855Y-114988146D01*
X146995289Y-114737289D01*
X147246146Y-114361855D01*
X147334235Y-113919000D01*
X147246146Y-113476145D01*
X146995289Y-113100711D01*
X146619855Y-112849854D01*
X146288783Y-112784000D01*
X137652781Y-112784000D01*
X137540999Y-112761765D01*
X137429217Y-112784000D01*
X137152000Y-112839142D01*
X137152000Y-102346783D01*
X137174235Y-102235000D01*
X137086146Y-101792145D01*
X136835289Y-101416711D01*
X136740521Y-101353389D01*
X135906333Y-100519201D01*
X135951855Y-100510146D01*
X136327289Y-100259289D01*
X136390613Y-100164519D01*
X137160000Y-99395132D01*
X138183389Y-100418521D01*
X138246711Y-100513289D01*
X138571042Y-100730000D01*
X138622145Y-100764146D01*
X139065000Y-100852235D01*
X139176783Y-100830000D01*
X142478783Y-100830000D01*
X142809855Y-100764146D01*
X143185289Y-100513289D01*
X143436146Y-100137855D01*
X143524235Y-99695000D01*
X143436146Y-99252145D01*
X143185289Y-98876711D01*
X142809855Y-98625854D01*
X142478783Y-98560000D01*
X139535132Y-98560000D01*
X138295000Y-97319869D01*
X138295000Y-89519782D01*
X138317235Y-89407999D01*
X138229146Y-88965145D01*
X137978289Y-88589711D01*
X137883521Y-88526389D01*
X135951315Y-86594184D01*
X135951315Y-85814131D01*
X136810448Y-84955000D01*
X139864869Y-84955000D01*
X141262476Y-86352609D01*
X141543145Y-86540146D01*
X141986000Y-86628235D01*
X142428854Y-86540146D01*
X142804289Y-86289289D01*
X143055146Y-85913854D01*
X143143235Y-85471000D01*
X143055146Y-85028145D01*
X142867609Y-84747476D01*
X141216613Y-83096481D01*
X141153289Y-83001711D01*
X140777855Y-82750854D01*
X140446783Y-82685000D01*
X140335000Y-82662765D01*
X140223217Y-82685000D01*
X136452096Y-82685000D01*
X136340314Y-82662765D01*
X136228532Y-82685000D01*
X135897460Y-82750854D01*
X135522026Y-83001711D01*
X135458706Y-83096476D01*
X134346184Y-84209000D01*
X127947711Y-84209000D01*
X128131431Y-84025280D01*
X128289000Y-83644874D01*
X128289000Y-83233126D01*
X128131431Y-82852720D01*
X127903000Y-82624289D01*
X127903000Y-80840711D01*
X128020431Y-80723280D01*
X128178000Y-80342874D01*
X128178000Y-79931126D01*
X128020431Y-79550720D01*
X127729280Y-79259569D01*
X127348874Y-79102000D01*
X126937126Y-79102000D01*
X126556720Y-79259569D01*
X126265569Y-79550720D01*
X126108000Y-79931126D01*
X126108000Y-80342874D01*
X126265569Y-80723280D01*
X126383000Y-80840711D01*
X126383001Y-82846288D01*
X126376569Y-82852720D01*
X126219000Y-83233126D01*
X126219000Y-83644874D01*
X126376569Y-84025280D01*
X126560289Y-84209000D01*
X120140000Y-84209000D01*
X120140000Y-78026126D01*
X144634000Y-78026126D01*
X144634000Y-78437874D01*
X144791569Y-78818280D01*
X145082720Y-79109431D01*
X145463126Y-79267000D01*
X145629199Y-79267000D01*
X148592001Y-82229803D01*
X148592000Y-106492197D01*
X147914632Y-107169566D01*
X147846998Y-107156113D01*
X147772151Y-107171001D01*
X147772147Y-107171001D01*
X147550462Y-107215097D01*
X147429382Y-107296000D01*
X147241126Y-107296000D01*
X146860720Y-107453569D01*
X146569569Y-107744720D01*
X146412000Y-108125126D01*
X146412000Y-108536874D01*
X146569569Y-108917280D01*
X146860720Y-109208431D01*
X147241126Y-109366000D01*
X147652874Y-109366000D01*
X148033280Y-109208431D01*
X148324431Y-108917280D01*
X148428512Y-108666005D01*
X148524536Y-108646905D01*
X148775928Y-108478930D01*
X148818330Y-108415471D01*
X149836476Y-107397327D01*
X149899929Y-107354929D01*
X149942327Y-107291476D01*
X149942329Y-107291474D01*
X150067903Y-107103538D01*
X150067904Y-107103537D01*
X150112000Y-106881852D01*
X150112000Y-106881848D01*
X150126888Y-106807001D01*
X150112000Y-106732154D01*
X150112000Y-81989848D01*
X150126888Y-81915000D01*
X150112000Y-81840152D01*
X150112000Y-81840148D01*
X150067904Y-81618463D01*
X149899929Y-81367071D01*
X149836473Y-81324671D01*
X146704000Y-78192199D01*
X146704000Y-78026126D01*
X146546431Y-77645720D01*
X146255280Y-77354569D01*
X145874874Y-77197000D01*
X145463126Y-77197000D01*
X145082720Y-77354569D01*
X144791569Y-77645720D01*
X144634000Y-78026126D01*
X120140000Y-78026126D01*
X120140000Y-72617440D01*
X120230000Y-72617440D01*
X120477765Y-72568157D01*
X120687809Y-72427809D01*
X120828157Y-72217765D01*
X120837184Y-72172381D01*
X120849375Y-72190625D01*
X121340582Y-72518839D01*
X121773744Y-72605000D01*
X122066256Y-72605000D01*
X122499418Y-72518839D01*
X122990625Y-72190625D01*
X123190000Y-71892239D01*
X123389375Y-72190625D01*
X123880582Y-72518839D01*
X124313744Y-72605000D01*
X124606256Y-72605000D01*
X125039418Y-72518839D01*
X125530625Y-72190625D01*
X125730000Y-71892239D01*
X125929375Y-72190625D01*
X126420582Y-72518839D01*
X126853744Y-72605000D01*
X127146256Y-72605000D01*
X127579418Y-72518839D01*
X128070625Y-72190625D01*
X128270000Y-71892239D01*
X128469375Y-72190625D01*
X128960582Y-72518839D01*
X129393744Y-72605000D01*
X129686256Y-72605000D01*
X130119418Y-72518839D01*
X130610625Y-72190625D01*
X130810000Y-71892239D01*
X131009375Y-72190625D01*
X131500582Y-72518839D01*
X131933744Y-72605000D01*
X132226256Y-72605000D01*
X132659418Y-72518839D01*
X133150625Y-72190625D01*
X133350000Y-71892239D01*
X133549375Y-72190625D01*
X134040582Y-72518839D01*
X134473744Y-72605000D01*
X134766256Y-72605000D01*
X135199418Y-72518839D01*
X135690625Y-72190625D01*
X135903843Y-71871522D01*
X135964817Y-72001358D01*
X136393076Y-72391645D01*
X136803110Y-72561476D01*
X137033000Y-72440155D01*
X137033000Y-71247000D01*
X137287000Y-71247000D01*
X137287000Y-72440155D01*
X137516890Y-72561476D01*
X137926924Y-72391645D01*
X138355183Y-72001358D01*
X138601486Y-71476892D01*
X138480819Y-71247000D01*
X137287000Y-71247000D01*
X137033000Y-71247000D01*
X137013000Y-71247000D01*
X137013000Y-70993000D01*
X137033000Y-70993000D01*
X137033000Y-69799845D01*
X137287000Y-69799845D01*
X137287000Y-70993000D01*
X138480819Y-70993000D01*
X138601486Y-70763108D01*
X138355183Y-70238642D01*
X137926924Y-69848355D01*
X137516890Y-69678524D01*
X137287000Y-69799845D01*
X137033000Y-69799845D01*
X136803110Y-69678524D01*
X136393076Y-69848355D01*
X135964817Y-70238642D01*
X135903843Y-70368478D01*
X135690625Y-70049375D01*
X135199418Y-69721161D01*
X134766256Y-69635000D01*
X134473744Y-69635000D01*
X134040582Y-69721161D01*
X133549375Y-70049375D01*
X133350000Y-70347761D01*
X133150625Y-70049375D01*
X132659418Y-69721161D01*
X132226256Y-69635000D01*
X131933744Y-69635000D01*
X131500582Y-69721161D01*
X131009375Y-70049375D01*
X130810000Y-70347761D01*
X130610625Y-70049375D01*
X130119418Y-69721161D01*
X129686256Y-69635000D01*
X129393744Y-69635000D01*
X128960582Y-69721161D01*
X128469375Y-70049375D01*
X128270000Y-70347761D01*
X128070625Y-70049375D01*
X127579418Y-69721161D01*
X127146256Y-69635000D01*
X126853744Y-69635000D01*
X126420582Y-69721161D01*
X125929375Y-70049375D01*
X125730000Y-70347761D01*
X125530625Y-70049375D01*
X125039418Y-69721161D01*
X124606256Y-69635000D01*
X124313744Y-69635000D01*
X123880582Y-69721161D01*
X123389375Y-70049375D01*
X123190000Y-70347761D01*
X122990625Y-70049375D01*
X122499418Y-69721161D01*
X122066256Y-69635000D01*
X121773744Y-69635000D01*
X121340582Y-69721161D01*
X120849375Y-70049375D01*
X120837184Y-70067619D01*
X120828157Y-70022235D01*
X120687809Y-69812191D01*
X120477765Y-69671843D01*
X120230000Y-69622560D01*
X118530000Y-69622560D01*
X118282235Y-69671843D01*
X118072191Y-69812191D01*
X117931843Y-70022235D01*
X117882560Y-70270000D01*
X117882560Y-71970000D01*
X117931843Y-72217765D01*
X118072191Y-72427809D01*
X118282235Y-72568157D01*
X118530000Y-72617440D01*
X118620000Y-72617440D01*
X118620001Y-83359869D01*
X118229613Y-82969481D01*
X118166289Y-82874711D01*
X117790855Y-82623854D01*
X117459783Y-82558000D01*
X117348000Y-82535765D01*
X117236217Y-82558000D01*
X113426217Y-82558000D01*
X113095145Y-82623854D01*
X112719711Y-82874711D01*
X112468854Y-83250145D01*
X112380765Y-83693000D01*
X104850000Y-83693000D01*
X104850000Y-75173970D01*
X106869635Y-75173970D01*
X107029418Y-75492739D01*
X107820187Y-75802723D01*
X108669387Y-75786497D01*
X109378582Y-75492739D01*
X109538365Y-75173970D01*
X108204000Y-73839605D01*
X106869635Y-75173970D01*
X104850000Y-75173970D01*
X104850000Y-73276187D01*
X106061277Y-73276187D01*
X106077503Y-74125387D01*
X106371261Y-74834582D01*
X106690030Y-74994365D01*
X108024395Y-73660000D01*
X108383605Y-73660000D01*
X109717970Y-74994365D01*
X110036739Y-74834582D01*
X110346723Y-74043813D01*
X110330497Y-73194613D01*
X110036739Y-72485418D01*
X109717970Y-72325635D01*
X108383605Y-73660000D01*
X108024395Y-73660000D01*
X106690030Y-72325635D01*
X106371261Y-72485418D01*
X106061277Y-73276187D01*
X104850000Y-73276187D01*
X104850000Y-72146030D01*
X106869635Y-72146030D01*
X108204000Y-73480395D01*
X109524395Y-72160000D01*
X111136560Y-72160000D01*
X111136560Y-75160000D01*
X111185843Y-75407765D01*
X111326191Y-75617809D01*
X111536235Y-75758157D01*
X111784000Y-75807440D01*
X114784000Y-75807440D01*
X115031765Y-75758157D01*
X115241809Y-75617809D01*
X115382157Y-75407765D01*
X115431440Y-75160000D01*
X115431440Y-72160000D01*
X115382157Y-71912235D01*
X115241809Y-71702191D01*
X115031765Y-71561843D01*
X114784000Y-71512560D01*
X111784000Y-71512560D01*
X111536235Y-71561843D01*
X111326191Y-71702191D01*
X111185843Y-71912235D01*
X111136560Y-72160000D01*
X109524395Y-72160000D01*
X109538365Y-72146030D01*
X109378582Y-71827261D01*
X108587813Y-71517277D01*
X107738613Y-71533503D01*
X107029418Y-71827261D01*
X106869635Y-72146030D01*
X104850000Y-72146030D01*
X104850000Y-69290000D01*
X150420000Y-69290000D01*
X150420001Y-121210000D01*
X150420001Y-121210000D01*
G37*
X150420001Y-121210000D02*
X104850000Y-121210000D01*
X104850000Y-114070000D01*
X105929560Y-114070000D01*
X105929560Y-117070000D01*
X105978843Y-117317765D01*
X106119191Y-117527809D01*
X106329235Y-117668157D01*
X106577000Y-117717440D01*
X109577000Y-117717440D01*
X109824765Y-117668157D01*
X110034809Y-117527809D01*
X110175157Y-117317765D01*
X110221661Y-117083970D01*
X111822635Y-117083970D01*
X111982418Y-117402739D01*
X112773187Y-117712723D01*
X113622387Y-117696497D01*
X114331582Y-117402739D01*
X114491365Y-117083970D01*
X113157000Y-115749605D01*
X111822635Y-117083970D01*
X110221661Y-117083970D01*
X110224440Y-117070000D01*
X110224440Y-115186187D01*
X111014277Y-115186187D01*
X111030503Y-116035387D01*
X111324261Y-116744582D01*
X111643030Y-116904365D01*
X112977395Y-115570000D01*
X113336605Y-115570000D01*
X114670970Y-116904365D01*
X114989739Y-116744582D01*
X115299723Y-115953813D01*
X115283497Y-115104613D01*
X114989739Y-114395418D01*
X114670970Y-114235635D01*
X113336605Y-115570000D01*
X112977395Y-115570000D01*
X111643030Y-114235635D01*
X111324261Y-114395418D01*
X111014277Y-115186187D01*
X110224440Y-115186187D01*
X110224440Y-114070000D01*
X110221662Y-114056030D01*
X111822635Y-114056030D01*
X113157000Y-115390395D01*
X114477395Y-114070000D01*
X117232560Y-114070000D01*
X117232560Y-117070000D01*
X117281843Y-117317765D01*
X117422191Y-117527809D01*
X117632235Y-117668157D01*
X117880000Y-117717440D01*
X120880000Y-117717440D01*
X121127765Y-117668157D01*
X121337809Y-117527809D01*
X121478157Y-117317765D01*
X121524661Y-117083970D01*
X123125635Y-117083970D01*
X123285418Y-117402739D01*
X124076187Y-117712723D01*
X124925387Y-117696497D01*
X125634582Y-117402739D01*
X125794365Y-117083970D01*
X124460000Y-115749605D01*
X123125635Y-117083970D01*
X121524661Y-117083970D01*
X121527440Y-117070000D01*
X121527440Y-115186187D01*
X122317277Y-115186187D01*
X122333503Y-116035387D01*
X122627261Y-116744582D01*
X122946030Y-116904365D01*
X124280395Y-115570000D01*
X124639605Y-115570000D01*
X125973970Y-116904365D01*
X126292739Y-116744582D01*
X126602723Y-115953813D01*
X126586497Y-115104613D01*
X126292739Y-114395418D01*
X125973970Y-114235635D01*
X124639605Y-115570000D01*
X124280395Y-115570000D01*
X122946030Y-114235635D01*
X122627261Y-114395418D01*
X122317277Y-115186187D01*
X121527440Y-115186187D01*
X121527440Y-114070000D01*
X121524662Y-114056030D01*
X123125635Y-114056030D01*
X124460000Y-115390395D01*
X125794365Y-114056030D01*
X125634582Y-113737261D01*
X124843813Y-113427277D01*
X123994613Y-113443503D01*
X123285418Y-113737261D01*
X123125635Y-114056030D01*
X121524662Y-114056030D01*
X121478157Y-113822235D01*
X121337809Y-113612191D01*
X121127765Y-113471843D01*
X120880000Y-113422560D01*
X117880000Y-113422560D01*
X117632235Y-113471843D01*
X117422191Y-113612191D01*
X117281843Y-113822235D01*
X117232560Y-114070000D01*
X114477395Y-114070000D01*
X114491365Y-114056030D01*
X114331582Y-113737261D01*
X113540813Y-113427277D01*
X112691613Y-113443503D01*
X111982418Y-113737261D01*
X111822635Y-114056030D01*
X110221662Y-114056030D01*
X110175157Y-113822235D01*
X110034809Y-113612191D01*
X109824765Y-113471843D01*
X109577000Y-113422560D01*
X106577000Y-113422560D01*
X106329235Y-113471843D01*
X106119191Y-113612191D01*
X105978843Y-113822235D01*
X105929560Y-114070000D01*
X104850000Y-114070000D01*
X104850000Y-83693000D01*
X112380765Y-83693000D01*
X112468854Y-84135855D01*
X112719711Y-84511289D01*
X113095145Y-84762146D01*
X113426217Y-84828000D01*
X116877869Y-84828000D01*
X117393868Y-85344000D01*
X113322482Y-89415387D01*
X113227711Y-89478711D01*
X112979054Y-89850854D01*
X112976854Y-89854146D01*
X112888765Y-90297000D01*
X112911000Y-90408783D01*
X112911001Y-92598213D01*
X112911000Y-92598218D01*
X112911001Y-97551212D01*
X112888765Y-97663000D01*
X112976854Y-98105855D01*
X113227711Y-98481289D01*
X113603145Y-98732146D01*
X113934217Y-98798000D01*
X114046000Y-98820235D01*
X114157783Y-98798000D01*
X117131869Y-98798000D01*
X118498389Y-100164521D01*
X118561710Y-100259288D01*
X118561711Y-100259289D01*
X118937145Y-100510146D01*
X119380000Y-100598235D01*
X119491783Y-100576000D01*
X132222216Y-100576000D01*
X132333999Y-100598235D01*
X132445782Y-100576000D01*
X132752869Y-100576000D01*
X134882001Y-102705133D01*
X134882000Y-115331216D01*
X134859765Y-115443000D01*
X134882000Y-115554784D01*
X134882000Y-118856782D01*
X134947854Y-119187854D01*
X135198711Y-119563289D01*
X135574145Y-119814146D01*
X136017000Y-119902235D01*
X136459854Y-119814146D01*
X136835289Y-119563289D01*
X137086146Y-119187855D01*
X137152000Y-118856783D01*
X137152000Y-115913131D01*
X138011133Y-115054000D01*
X146288783Y-115054000D01*
X146619855Y-114988146D01*
X146995289Y-114737289D01*
X147246146Y-114361855D01*
X147334235Y-113919000D01*
X147246146Y-113476145D01*
X146995289Y-113100711D01*
X146619855Y-112849854D01*
X146288783Y-112784000D01*
X137652781Y-112784000D01*
X137540999Y-112761765D01*
X137429217Y-112784000D01*
X137152000Y-112839142D01*
X137152000Y-102346783D01*
X137174235Y-102235000D01*
X137086146Y-101792145D01*
X136835289Y-101416711D01*
X136740521Y-101353389D01*
X135906333Y-100519201D01*
X135951855Y-100510146D01*
X136327289Y-100259289D01*
X136390613Y-100164519D01*
X137160000Y-99395132D01*
X138183389Y-100418521D01*
X138246711Y-100513289D01*
X138571042Y-100730000D01*
X138622145Y-100764146D01*
X139065000Y-100852235D01*
X139176783Y-100830000D01*
X142478783Y-100830000D01*
X142809855Y-100764146D01*
X143185289Y-100513289D01*
X143436146Y-100137855D01*
X143524235Y-99695000D01*
X143436146Y-99252145D01*
X143185289Y-98876711D01*
X142809855Y-98625854D01*
X142478783Y-98560000D01*
X139535132Y-98560000D01*
X138295000Y-97319869D01*
X138295000Y-89519782D01*
X138317235Y-89407999D01*
X138229146Y-88965145D01*
X137978289Y-88589711D01*
X137883521Y-88526389D01*
X135951315Y-86594184D01*
X135951315Y-85814131D01*
X136810448Y-84955000D01*
X139864869Y-84955000D01*
X141262476Y-86352609D01*
X141543145Y-86540146D01*
X141986000Y-86628235D01*
X142428854Y-86540146D01*
X142804289Y-86289289D01*
X143055146Y-85913854D01*
X143143235Y-85471000D01*
X143055146Y-85028145D01*
X142867609Y-84747476D01*
X141216613Y-83096481D01*
X141153289Y-83001711D01*
X140777855Y-82750854D01*
X140446783Y-82685000D01*
X140335000Y-82662765D01*
X140223217Y-82685000D01*
X136452096Y-82685000D01*
X136340314Y-82662765D01*
X136228532Y-82685000D01*
X135897460Y-82750854D01*
X135522026Y-83001711D01*
X135458706Y-83096476D01*
X134346184Y-84209000D01*
X127947711Y-84209000D01*
X128131431Y-84025280D01*
X128289000Y-83644874D01*
X128289000Y-83233126D01*
X128131431Y-82852720D01*
X127903000Y-82624289D01*
X127903000Y-80840711D01*
X128020431Y-80723280D01*
X128178000Y-80342874D01*
X128178000Y-79931126D01*
X128020431Y-79550720D01*
X127729280Y-79259569D01*
X127348874Y-79102000D01*
X126937126Y-79102000D01*
X126556720Y-79259569D01*
X126265569Y-79550720D01*
X126108000Y-79931126D01*
X126108000Y-80342874D01*
X126265569Y-80723280D01*
X126383000Y-80840711D01*
X126383001Y-82846288D01*
X126376569Y-82852720D01*
X126219000Y-83233126D01*
X126219000Y-83644874D01*
X126376569Y-84025280D01*
X126560289Y-84209000D01*
X120140000Y-84209000D01*
X120140000Y-78026126D01*
X144634000Y-78026126D01*
X144634000Y-78437874D01*
X144791569Y-78818280D01*
X145082720Y-79109431D01*
X145463126Y-79267000D01*
X145629199Y-79267000D01*
X148592001Y-82229803D01*
X148592000Y-106492197D01*
X147914632Y-107169566D01*
X147846998Y-107156113D01*
X147772151Y-107171001D01*
X147772147Y-107171001D01*
X147550462Y-107215097D01*
X147429382Y-107296000D01*
X147241126Y-107296000D01*
X146860720Y-107453569D01*
X146569569Y-107744720D01*
X146412000Y-108125126D01*
X146412000Y-108536874D01*
X146569569Y-108917280D01*
X146860720Y-109208431D01*
X147241126Y-109366000D01*
X147652874Y-109366000D01*
X148033280Y-109208431D01*
X148324431Y-108917280D01*
X148428512Y-108666005D01*
X148524536Y-108646905D01*
X148775928Y-108478930D01*
X148818330Y-108415471D01*
X149836476Y-107397327D01*
X149899929Y-107354929D01*
X149942327Y-107291476D01*
X149942329Y-107291474D01*
X150067903Y-107103538D01*
X150067904Y-107103537D01*
X150112000Y-106881852D01*
X150112000Y-106881848D01*
X150126888Y-106807001D01*
X150112000Y-106732154D01*
X150112000Y-81989848D01*
X150126888Y-81915000D01*
X150112000Y-81840152D01*
X150112000Y-81840148D01*
X150067904Y-81618463D01*
X149899929Y-81367071D01*
X149836473Y-81324671D01*
X146704000Y-78192199D01*
X146704000Y-78026126D01*
X146546431Y-77645720D01*
X146255280Y-77354569D01*
X145874874Y-77197000D01*
X145463126Y-77197000D01*
X145082720Y-77354569D01*
X144791569Y-77645720D01*
X144634000Y-78026126D01*
X120140000Y-78026126D01*
X120140000Y-72617440D01*
X120230000Y-72617440D01*
X120477765Y-72568157D01*
X120687809Y-72427809D01*
X120828157Y-72217765D01*
X120837184Y-72172381D01*
X120849375Y-72190625D01*
X121340582Y-72518839D01*
X121773744Y-72605000D01*
X122066256Y-72605000D01*
X122499418Y-72518839D01*
X122990625Y-72190625D01*
X123190000Y-71892239D01*
X123389375Y-72190625D01*
X123880582Y-72518839D01*
X124313744Y-72605000D01*
X124606256Y-72605000D01*
X125039418Y-72518839D01*
X125530625Y-72190625D01*
X125730000Y-71892239D01*
X125929375Y-72190625D01*
X126420582Y-72518839D01*
X126853744Y-72605000D01*
X127146256Y-72605000D01*
X127579418Y-72518839D01*
X128070625Y-72190625D01*
X128270000Y-71892239D01*
X128469375Y-72190625D01*
X128960582Y-72518839D01*
X129393744Y-72605000D01*
X129686256Y-72605000D01*
X130119418Y-72518839D01*
X130610625Y-72190625D01*
X130810000Y-71892239D01*
X131009375Y-72190625D01*
X131500582Y-72518839D01*
X131933744Y-72605000D01*
X132226256Y-72605000D01*
X132659418Y-72518839D01*
X133150625Y-72190625D01*
X133350000Y-71892239D01*
X133549375Y-72190625D01*
X134040582Y-72518839D01*
X134473744Y-72605000D01*
X134766256Y-72605000D01*
X135199418Y-72518839D01*
X135690625Y-72190625D01*
X135903843Y-71871522D01*
X135964817Y-72001358D01*
X136393076Y-72391645D01*
X136803110Y-72561476D01*
X137033000Y-72440155D01*
X137033000Y-71247000D01*
X137287000Y-71247000D01*
X137287000Y-72440155D01*
X137516890Y-72561476D01*
X137926924Y-72391645D01*
X138355183Y-72001358D01*
X138601486Y-71476892D01*
X138480819Y-71247000D01*
X137287000Y-71247000D01*
X137033000Y-71247000D01*
X137013000Y-71247000D01*
X137013000Y-70993000D01*
X137033000Y-70993000D01*
X137033000Y-69799845D01*
X137287000Y-69799845D01*
X137287000Y-70993000D01*
X138480819Y-70993000D01*
X138601486Y-70763108D01*
X138355183Y-70238642D01*
X137926924Y-69848355D01*
X137516890Y-69678524D01*
X137287000Y-69799845D01*
X137033000Y-69799845D01*
X136803110Y-69678524D01*
X136393076Y-69848355D01*
X135964817Y-70238642D01*
X135903843Y-70368478D01*
X135690625Y-70049375D01*
X135199418Y-69721161D01*
X134766256Y-69635000D01*
X134473744Y-69635000D01*
X134040582Y-69721161D01*
X133549375Y-70049375D01*
X133350000Y-70347761D01*
X133150625Y-70049375D01*
X132659418Y-69721161D01*
X132226256Y-69635000D01*
X131933744Y-69635000D01*
X131500582Y-69721161D01*
X131009375Y-70049375D01*
X130810000Y-70347761D01*
X130610625Y-70049375D01*
X130119418Y-69721161D01*
X129686256Y-69635000D01*
X129393744Y-69635000D01*
X128960582Y-69721161D01*
X128469375Y-70049375D01*
X128270000Y-70347761D01*
X128070625Y-70049375D01*
X127579418Y-69721161D01*
X127146256Y-69635000D01*
X126853744Y-69635000D01*
X126420582Y-69721161D01*
X125929375Y-70049375D01*
X125730000Y-70347761D01*
X125530625Y-70049375D01*
X125039418Y-69721161D01*
X124606256Y-69635000D01*
X124313744Y-69635000D01*
X123880582Y-69721161D01*
X123389375Y-70049375D01*
X123190000Y-70347761D01*
X122990625Y-70049375D01*
X122499418Y-69721161D01*
X122066256Y-69635000D01*
X121773744Y-69635000D01*
X121340582Y-69721161D01*
X120849375Y-70049375D01*
X120837184Y-70067619D01*
X120828157Y-70022235D01*
X120687809Y-69812191D01*
X120477765Y-69671843D01*
X120230000Y-69622560D01*
X118530000Y-69622560D01*
X118282235Y-69671843D01*
X118072191Y-69812191D01*
X117931843Y-70022235D01*
X117882560Y-70270000D01*
X117882560Y-71970000D01*
X117931843Y-72217765D01*
X118072191Y-72427809D01*
X118282235Y-72568157D01*
X118530000Y-72617440D01*
X118620000Y-72617440D01*
X118620001Y-83359869D01*
X118229613Y-82969481D01*
X118166289Y-82874711D01*
X117790855Y-82623854D01*
X117459783Y-82558000D01*
X117348000Y-82535765D01*
X117236217Y-82558000D01*
X113426217Y-82558000D01*
X113095145Y-82623854D01*
X112719711Y-82874711D01*
X112468854Y-83250145D01*
X112380765Y-83693000D01*
X104850000Y-83693000D01*
X104850000Y-75173970D01*
X106869635Y-75173970D01*
X107029418Y-75492739D01*
X107820187Y-75802723D01*
X108669387Y-75786497D01*
X109378582Y-75492739D01*
X109538365Y-75173970D01*
X108204000Y-73839605D01*
X106869635Y-75173970D01*
X104850000Y-75173970D01*
X104850000Y-73276187D01*
X106061277Y-73276187D01*
X106077503Y-74125387D01*
X106371261Y-74834582D01*
X106690030Y-74994365D01*
X108024395Y-73660000D01*
X108383605Y-73660000D01*
X109717970Y-74994365D01*
X110036739Y-74834582D01*
X110346723Y-74043813D01*
X110330497Y-73194613D01*
X110036739Y-72485418D01*
X109717970Y-72325635D01*
X108383605Y-73660000D01*
X108024395Y-73660000D01*
X106690030Y-72325635D01*
X106371261Y-72485418D01*
X106061277Y-73276187D01*
X104850000Y-73276187D01*
X104850000Y-72146030D01*
X106869635Y-72146030D01*
X108204000Y-73480395D01*
X109524395Y-72160000D01*
X111136560Y-72160000D01*
X111136560Y-75160000D01*
X111185843Y-75407765D01*
X111326191Y-75617809D01*
X111536235Y-75758157D01*
X111784000Y-75807440D01*
X114784000Y-75807440D01*
X115031765Y-75758157D01*
X115241809Y-75617809D01*
X115382157Y-75407765D01*
X115431440Y-75160000D01*
X115431440Y-72160000D01*
X115382157Y-71912235D01*
X115241809Y-71702191D01*
X115031765Y-71561843D01*
X114784000Y-71512560D01*
X111784000Y-71512560D01*
X111536235Y-71561843D01*
X111326191Y-71702191D01*
X111185843Y-71912235D01*
X111136560Y-72160000D01*
X109524395Y-72160000D01*
X109538365Y-72146030D01*
X109378582Y-71827261D01*
X108587813Y-71517277D01*
X107738613Y-71533503D01*
X107029418Y-71827261D01*
X106869635Y-72146030D01*
X104850000Y-72146030D01*
X104850000Y-69290000D01*
X150420000Y-69290000D01*
X150420001Y-121210000D01*
G36*
X129593868Y-98306000D02*
X120850131Y-98306000D01*
X125222000Y-93934132D01*
X129593868Y-98306000D01*
X129593868Y-98306000D01*
G37*
X129593868Y-98306000D02*
X120850131Y-98306000D01*
X125222000Y-93934132D01*
X129593868Y-98306000D01*
G36*
X136025001Y-89878133D02*
X136025000Y-97319867D01*
X135038869Y-98306000D01*
X133334783Y-98306000D01*
X133223000Y-98283765D01*
X133111217Y-98306000D01*
X132804132Y-98306000D01*
X126827132Y-92329000D01*
X130956818Y-88199315D01*
X134346184Y-88199315D01*
X136025001Y-89878133D01*
X136025001Y-89878133D01*
G37*
X136025001Y-89878133D02*
X136025000Y-97319867D01*
X135038869Y-98306000D01*
X133334783Y-98306000D01*
X133223000Y-98283765D01*
X133111217Y-98306000D01*
X132804132Y-98306000D01*
X126827132Y-92329000D01*
X130956818Y-88199315D01*
X134346184Y-88199315D01*
X136025001Y-89878133D01*
G36*
X123616868Y-92329000D02*
X118745000Y-97200869D01*
X118483613Y-96939482D01*
X118420289Y-96844711D01*
X118044855Y-96593854D01*
X117713783Y-96528000D01*
X117602000Y-96505765D01*
X117490217Y-96528000D01*
X115181000Y-96528000D01*
X115181000Y-90767131D01*
X118618000Y-87330131D01*
X123616868Y-92329000D01*
X123616868Y-92329000D01*
G37*
X123616868Y-92329000D02*
X118745000Y-97200869D01*
X118483613Y-96939482D01*
X118420289Y-96844711D01*
X118044855Y-96593854D01*
X117713783Y-96528000D01*
X117602000Y-96505765D01*
X117490217Y-96528000D01*
X115181000Y-96528000D01*
X115181000Y-90767131D01*
X118618000Y-87330131D01*
X123616868Y-92329000D01*
G36*
X125222000Y-90723868D02*
X120977131Y-86479000D01*
X129466867Y-86479000D01*
X125222000Y-90723868D01*
X125222000Y-90723868D01*
G37*
X125222000Y-90723868D02*
X120977131Y-86479000D01*
X129466867Y-86479000D01*
X125222000Y-90723868D01*
G04 #@! TD*
M02*
