G04 #@! TF.GenerationSoftware,KiCad,Pcbnew,(5.0.0)*
G04 #@! TF.CreationDate,2020-04-28T19:31:03-04:00*
G04 #@! TF.ProjectId,Kyle's Amp,4B796C65277320416D702E6B69636164,rev?*
G04 #@! TF.SameCoordinates,Original*
G04 #@! TF.FileFunction,Soldermask,Top*
G04 #@! TF.FilePolarity,Negative*
%FSLAX46Y46*%
G04 Gerber Fmt 4.6, Leading zero omitted, Abs format (unit mm)*
G04 Created by KiCad (PCBNEW (5.0.0)) date 04/28/20 19:31:03*
%MOMM*%
%LPD*%
G01*
G04 APERTURE LIST*
%ADD10R,1.400000X1.650000*%
%ADD11R,1.460000X1.050000*%
%ADD12R,1.100000X1.700000*%
%ADD13R,1.700000X1.100000*%
%ADD14R,1.650000X1.400000*%
%ADD15R,2.200000X2.900000*%
%ADD16R,3.400000X3.400000*%
%ADD17C,3.400000*%
%ADD18O,2.100000X2.100000*%
%ADD19R,2.100000X2.100000*%
G04 APERTURE END LIST*
D10*
G04 #@! TO.C,C15*
X137947000Y-103632000D03*
X139947000Y-103632000D03*
G04 #@! TD*
D11*
G04 #@! TO.C,U4*
X138668000Y-99695000D03*
X138668000Y-100645000D03*
X138668000Y-101595000D03*
X140868000Y-101595000D03*
X140868000Y-99695000D03*
G04 #@! TD*
D12*
G04 #@! TO.C,R28*
X130840000Y-97790000D03*
X132740000Y-97790000D03*
G04 #@! TD*
G04 #@! TO.C,R23*
X147599000Y-101600000D03*
X145699000Y-101600000D03*
G04 #@! TD*
D10*
G04 #@! TO.C,C13*
X134153000Y-103632000D03*
X136153000Y-103632000D03*
G04 #@! TD*
D13*
G04 #@! TO.C,R27*
X145694000Y-103505000D03*
X145694000Y-105405000D03*
G04 #@! TD*
D12*
G04 #@! TO.C,R24*
X136037000Y-97790000D03*
X134137000Y-97790000D03*
G04 #@! TD*
D14*
G04 #@! TO.C,C16*
X138709000Y-95790000D03*
X138709000Y-97790000D03*
G04 #@! TD*
D12*
G04 #@! TO.C,R22*
X136037000Y-101600000D03*
X134137000Y-101600000D03*
G04 #@! TD*
D13*
G04 #@! TO.C,R25*
X141757000Y-105405000D03*
X141757000Y-103505000D03*
G04 #@! TD*
D12*
G04 #@! TO.C,R26*
X136042000Y-99695000D03*
X134142000Y-99695000D03*
G04 #@! TD*
D14*
G04 #@! TO.C,C14*
X143662000Y-101600000D03*
X143662000Y-103600000D03*
G04 #@! TD*
D10*
G04 #@! TO.C,C11*
X116808000Y-103505000D03*
X114808000Y-103505000D03*
G04 #@! TD*
D14*
G04 #@! TO.C,C10*
X120523000Y-103473000D03*
X120523000Y-101473000D03*
G04 #@! TD*
D12*
G04 #@! TO.C,R19*
X111003000Y-99568000D03*
X112903000Y-99568000D03*
G04 #@! TD*
D10*
G04 #@! TO.C,C9*
X113014000Y-103505000D03*
X111014000Y-103505000D03*
G04 #@! TD*
D12*
G04 #@! TO.C,R15*
X110998000Y-101473000D03*
X112898000Y-101473000D03*
G04 #@! TD*
D13*
G04 #@! TO.C,R18*
X118618000Y-103378000D03*
X118618000Y-105278000D03*
G04 #@! TD*
D12*
G04 #@! TO.C,R21*
X109601000Y-97663000D03*
X107701000Y-97663000D03*
G04 #@! TD*
D13*
G04 #@! TO.C,R20*
X122555000Y-105278000D03*
X122555000Y-103378000D03*
G04 #@! TD*
D12*
G04 #@! TO.C,R17*
X110998000Y-97663000D03*
X112898000Y-97663000D03*
G04 #@! TD*
D14*
G04 #@! TO.C,C12*
X115570000Y-97663000D03*
X115570000Y-95663000D03*
G04 #@! TD*
D12*
G04 #@! TO.C,R16*
X122560000Y-101473000D03*
X124460000Y-101473000D03*
G04 #@! TD*
D11*
G04 #@! TO.C,U3*
X117729000Y-99568000D03*
X117729000Y-101468000D03*
X115529000Y-101468000D03*
X115529000Y-100518000D03*
X115529000Y-99568000D03*
G04 #@! TD*
D10*
G04 #@! TO.C,C7*
X137668000Y-89662000D03*
X139668000Y-89662000D03*
G04 #@! TD*
D14*
G04 #@! TO.C,C6*
X143383000Y-87630000D03*
X143383000Y-89630000D03*
G04 #@! TD*
G04 #@! TO.C,C8*
X138430000Y-81820000D03*
X138430000Y-83820000D03*
G04 #@! TD*
D10*
G04 #@! TO.C,C5*
X133874000Y-89662000D03*
X135874000Y-89662000D03*
G04 #@! TD*
D11*
G04 #@! TO.C,U2*
X138389000Y-85725000D03*
X138389000Y-86675000D03*
X138389000Y-87625000D03*
X140589000Y-87625000D03*
X140589000Y-85725000D03*
G04 #@! TD*
D12*
G04 #@! TO.C,R14*
X130561000Y-83820000D03*
X132461000Y-83820000D03*
G04 #@! TD*
G04 #@! TO.C,R10*
X135758000Y-83820000D03*
X133858000Y-83820000D03*
G04 #@! TD*
D13*
G04 #@! TO.C,R11*
X141478000Y-91435000D03*
X141478000Y-89535000D03*
G04 #@! TD*
D12*
G04 #@! TO.C,R8*
X135758000Y-87630000D03*
X133858000Y-87630000D03*
G04 #@! TD*
G04 #@! TO.C,R9*
X147320000Y-87630000D03*
X145420000Y-87630000D03*
G04 #@! TD*
G04 #@! TO.C,R12*
X135763000Y-85725000D03*
X133863000Y-85725000D03*
G04 #@! TD*
D13*
G04 #@! TO.C,R13*
X145415000Y-89535000D03*
X145415000Y-91435000D03*
G04 #@! TD*
D12*
G04 #@! TO.C,R1*
X110500000Y-87503000D03*
X112400000Y-87503000D03*
G04 #@! TD*
G04 #@! TO.C,R2*
X122062000Y-87503000D03*
X123962000Y-87503000D03*
G04 #@! TD*
G04 #@! TO.C,R3*
X110500000Y-83693000D03*
X112400000Y-83693000D03*
G04 #@! TD*
D13*
G04 #@! TO.C,R4*
X118120000Y-89408000D03*
X118120000Y-91308000D03*
G04 #@! TD*
D12*
G04 #@! TO.C,R5*
X110505000Y-85598000D03*
X112405000Y-85598000D03*
G04 #@! TD*
D13*
G04 #@! TO.C,R6*
X122057000Y-91308000D03*
X122057000Y-89408000D03*
G04 #@! TD*
D12*
G04 #@! TO.C,R7*
X109103000Y-83693000D03*
X107203000Y-83693000D03*
G04 #@! TD*
D11*
G04 #@! TO.C,U1*
X117231000Y-85598000D03*
X117231000Y-87498000D03*
X115031000Y-87498000D03*
X115031000Y-86548000D03*
X115031000Y-85598000D03*
G04 #@! TD*
D10*
G04 #@! TO.C,C1*
X112516000Y-89535000D03*
X110516000Y-89535000D03*
G04 #@! TD*
D14*
G04 #@! TO.C,C2*
X120025000Y-89503000D03*
X120025000Y-87503000D03*
G04 #@! TD*
D10*
G04 #@! TO.C,C3*
X116310000Y-89535000D03*
X114310000Y-89535000D03*
G04 #@! TD*
D14*
G04 #@! TO.C,C4*
X115072000Y-83693000D03*
X115072000Y-81693000D03*
G04 #@! TD*
G04 #@! TO.C,C17*
X143764000Y-110125000D03*
X143764000Y-112125000D03*
G04 #@! TD*
G04 #@! TO.C,C18*
X141732000Y-112141000D03*
X141732000Y-110141000D03*
G04 #@! TD*
D15*
G04 #@! TO.C,D1*
X138557000Y-110046000D03*
X138557000Y-114046000D03*
G04 #@! TD*
D12*
G04 #@! TO.C,R29*
X137800000Y-118745000D03*
X139700000Y-118745000D03*
G04 #@! TD*
G04 #@! TO.C,R30*
X137800000Y-116713000D03*
X139700000Y-116713000D03*
G04 #@! TD*
G04 #@! TO.C,R31*
X135890000Y-114046000D03*
X133990000Y-114046000D03*
G04 #@! TD*
G04 #@! TO.C,R32*
X147950000Y-116078000D03*
X146050000Y-116078000D03*
G04 #@! TD*
D11*
G04 #@! TO.C,U5*
X143975000Y-114112000D03*
X143975000Y-116012000D03*
X141775000Y-116012000D03*
X141775000Y-115062000D03*
X141775000Y-114112000D03*
G04 #@! TD*
D14*
G04 #@! TO.C,C19*
X143764000Y-85344000D03*
X143764000Y-83344000D03*
G04 #@! TD*
D10*
G04 #@! TO.C,C20*
X122285000Y-84709000D03*
X120285000Y-84709000D03*
G04 #@! TD*
G04 #@! TO.C,C21*
X143383000Y-98425000D03*
X145383000Y-98425000D03*
G04 #@! TD*
G04 #@! TO.C,C22*
X120015000Y-99060000D03*
X122015000Y-99060000D03*
G04 #@! TD*
G04 #@! TO.C,C23*
X106839000Y-109220000D03*
X108839000Y-109220000D03*
G04 #@! TD*
D14*
G04 #@! TO.C,C24*
X119380000Y-76295000D03*
X119380000Y-74295000D03*
G04 #@! TD*
G04 #@! TO.C,C25*
X147447000Y-112903000D03*
X147447000Y-110903000D03*
G04 #@! TD*
D16*
G04 #@! TO.C,J2*
X108077000Y-115570000D03*
D17*
X113157000Y-115570000D03*
G04 #@! TD*
D18*
G04 #@! TO.C,J3*
X137160000Y-71120000D03*
X134620000Y-71120000D03*
X132080000Y-71120000D03*
X129540000Y-71120000D03*
X127000000Y-71120000D03*
X124460000Y-71120000D03*
X121920000Y-71120000D03*
D19*
X119380000Y-71120000D03*
G04 #@! TD*
D17*
G04 #@! TO.C,J4*
X108204000Y-73660000D03*
D16*
X113284000Y-73660000D03*
G04 #@! TD*
D12*
G04 #@! TO.C,R33*
X121605000Y-78740000D03*
X123505000Y-78740000D03*
G04 #@! TD*
G04 #@! TO.C,R34*
X126360000Y-78740000D03*
X124460000Y-78740000D03*
G04 #@! TD*
G04 #@! TO.C,R35*
X127640000Y-78740000D03*
X129540000Y-78740000D03*
G04 #@! TD*
D13*
G04 #@! TO.C,R36*
X121920000Y-74930000D03*
X121920000Y-76830000D03*
G04 #@! TD*
G04 #@! TO.C,R37*
X124460000Y-76830000D03*
X124460000Y-74930000D03*
G04 #@! TD*
G04 #@! TO.C,R38*
X127000000Y-74930000D03*
X127000000Y-76830000D03*
G04 #@! TD*
G04 #@! TO.C,R39*
X129540000Y-76830000D03*
X129540000Y-74930000D03*
G04 #@! TD*
G04 #@! TO.C,R40*
X132080000Y-76830000D03*
X132080000Y-74930000D03*
G04 #@! TD*
G04 #@! TO.C,R41*
X134620000Y-74930000D03*
X134620000Y-76830000D03*
G04 #@! TD*
D17*
G04 #@! TO.C,J1*
X124460000Y-115570000D03*
D16*
X119380000Y-115570000D03*
G04 #@! TD*
M02*
