M48
;DRILL file {KiCad (5.0.0)} date 04/28/20 19:31:06
;FORMAT={-:-/ absolute / metric / decimal}
FMAT,2
METRIC,TZ
T1C0.400
T2C1.000
T3C1.520
%
G90
G05
M71
T1
X113.538Y-83.693
X113.548Y-86.614
X114.046Y-92.71
X114.046Y-97.663
X114.046Y-100.584
X115.824Y-93.726
X118.999Y-85.344
X119.38Y-99.441
X120.65Y-91.44
X121.92Y-81.28
X125.73Y-83.82
X126.238Y-87.757
X127.Y-97.79
X127.143Y-80.137
X127.254Y-83.439
X127.254Y-102.362
X129.54Y-83.82
X129.54Y-92.71
X134.62Y-91.44
X134.62Y-93.98
X136.017Y-118.745
X136.906Y-83.82
X137.033Y-86.741
X137.16Y-97.79
X137.287Y-100.711
X141.986Y-85.471
X142.367Y-99.695
X142.875Y-117.602
X145.669Y-78.232
X146.05Y-83.82
X146.05Y-92.71
X146.177Y-113.919
X147.447Y-108.331
T2
X119.38Y-71.12
X121.92Y-71.12
X124.46Y-71.12
X127.Y-71.12
X129.54Y-71.12
X132.08Y-71.12
X134.62Y-71.12
X137.16Y-71.12
T3
X108.204Y-73.66
X113.284Y-73.66
X119.38Y-115.57
X124.46Y-115.57
X108.077Y-115.57
X113.157Y-115.57
T0
M30
